<svg width="61" height="126" viewBox="0 0 61 126" fill="none" xmlns="http://www.w3.org/2000/svg">
<path opacity="0.25" d="M27.0713 120.629C26.8667 121.142 27.1166 121.724 27.6296 121.929L35.989 125.263C36.502 125.468 37.0838 125.218 37.2884 124.705C37.493 124.192 37.2431 123.61 36.7301 123.406L29.2995 120.442L32.2636 113.011C32.4682 112.498 32.2183 111.916 31.7053 111.712C31.1923 111.507 30.6106 111.757 30.4059 112.27L27.0713 120.629ZM28.0001 0.999998C27.6053 1.91877 27.6049 1.91859 27.6046 1.91846C27.6047 1.91848 27.6045 1.9184 27.6046 1.91846C27.6048 1.91856 27.6056 1.91887 27.6068 1.9194C27.6092 1.92044 27.6135 1.92233 27.6197 1.92506C27.6321 1.93054 27.652 1.93941 27.6793 1.95175C27.7338 1.97643 27.8174 2.01499 27.9283 2.06798C28.1501 2.17398 28.4808 2.33769 28.9048 2.56365C29.7529 3.01563 30.9737 3.71626 32.4432 4.70164C35.3827 6.67279 39.3124 9.78012 43.2449 14.3117C51.0966 23.3596 59.0001 38.13 59.0001 61L60.0001 61L61.0001 61C61.0001 37.62 52.9037 22.3904 44.7554 13.0008C40.6879 8.31363 36.6176 5.09283 33.5571 3.04054C32.0265 2.0142 30.7473 1.27929 29.8454 0.798648C29.3944 0.5583 29.0376 0.38144 28.7907 0.263435C28.6672 0.20443 28.5712 0.16013 28.5046 0.129957C28.4713 0.114871 28.4453 0.103314 28.4269 0.0952167C28.4178 0.0911679 28.4105 0.0879835 28.4051 0.0856546C28.4025 0.0844901 28.4003 0.0835395 28.3986 0.0828017C28.3977 0.0824329 28.3968 0.0820382 28.3964 0.0818542C28.3956 0.0815132 28.3949 0.081225 28.0001 0.999998ZM60.0001 61L59.0001 61C59.0001 83.87 51.0966 98.6404 43.2449 107.688C39.3124 112.22 35.3827 115.327 32.4432 117.298C30.9737 118.284 29.7529 118.984 28.9048 119.436C28.4808 119.662 28.1501 119.826 27.9283 119.932C27.8174 119.985 27.7338 120.024 27.6793 120.048C27.652 120.061 27.6321 120.069 27.6197 120.075C27.6135 120.078 27.6092 120.08 27.6068 120.081C27.6056 120.081 27.6048 120.081 27.6046 120.082C27.6045 120.082 27.6047 120.082 27.6046 120.082C27.6049 120.081 27.6053 120.081 28.0001 121C28.3949 121.919 28.3956 121.918 28.3964 121.918C28.3968 121.918 28.3977 121.918 28.3986 121.917C28.4003 121.916 28.4025 121.916 28.4051 121.914C28.4105 121.912 28.4178 121.909 28.4269 121.905C28.4453 121.897 28.4712 121.885 28.5046 121.87C28.5712 121.84 28.6672 121.796 28.7907 121.737C29.0376 121.619 29.3944 121.442 29.8454 121.201C30.7473 120.721 32.0265 119.986 33.5571 118.959C36.6176 116.907 40.6878 113.686 44.7554 108.999C52.9037 99.6096 61.0001 84.38 61.0001 61L60.0001 61Z" fill="#6B58D9"/>
</svg>
