<svg width="67" height="80" viewBox="0 0 67 80" fill="none" xmlns="http://www.w3.org/2000/svg">
<g clip-path="url(#clip0_18_1849)">
<path d="M25.9496 65.661C24.6165 64.2834 22.6846 63.4934 20.6492 63.4934L20.5707 63.4936C19.2301 63.4941 17.9134 63.1378 16.7553 62.4612L16.6347 62.3909L16.7318 62.2906C17.2573 61.7459 17.6961 61.1235 18.0328 60.4452C17.7936 60.6686 17.5084 60.8365 17.1973 60.9372C16.8862 61.0379 16.5568 61.0689 16.2324 61.0279C15.89 60.987 15.5612 60.8689 15.2708 60.6825C14.9804 60.4962 14.7358 60.2463 14.5556 59.9517C13.8442 58.7953 12.9962 57.1544 12.9962 55.9043C12.9973 54.8477 13.2181 53.8029 13.6446 52.8365C14.071 51.8701 14.6937 51.0034 15.473 50.2915C15.9664 49.8458 16.3604 49.3009 16.6295 48.6923C16.8986 48.0838 17.0367 47.4253 17.0347 46.7597L17.0343 46.6649C17.0342 45.7887 17.141 44.9157 17.3525 44.0654L17.374 43.9795L17.4622 43.9826C18.0308 44.002 18.5996 43.9542 19.1571 43.8403C18.6342 43.7761 18.1227 43.6398 17.637 43.4353L17.5422 43.3968L17.5744 43.2994C19.7934 41.9229 24.8023 42.6357 27.7096 35.9711C30.067 30.567 38.3848 40.7683 38.3848 46.665C38.3848 47.2666 37.7905 48.0617 38.2354 48.4594C43.0447 52.7584 39.7264 55.5189 38.6801 58.2966C38.4319 58.9557 38.9701 59.6792 38.9701 60.3922C38.9701 60.5132 38.9671 60.6381 38.961 60.7634L38.9517 60.9561L38.7913 60.8492C38.4741 60.6409 38.1801 60.3993 37.9142 60.1283C38.19 60.7642 38.32 61.454 38.2946 62.1469C38.2692 62.8399 38.089 63.5182 37.7674 64.1322C37.2634 65.0853 36.7758 65.7676 36.3182 66.1601C34.8522 67.4171 32.9623 68.0655 31.035 67.9727C29.1077 67.8799 27.2886 67.053 25.9496 65.661Z" fill="#E6E6E6"/>
<path d="M34.0016 79.9999C34.0343 79.9998 34.066 79.988 34.0907 79.9664C34.1155 79.9449 34.1316 79.9151 34.1363 79.8826C34.142 79.8419 34.7089 75.7457 34.1998 70.3016C33.7296 65.2738 32.2197 58.0321 27.6967 52.0847C27.6859 52.0704 27.6723 52.0584 27.6569 52.0493C27.6414 52.0403 27.6243 52.0344 27.6066 52.032C27.5888 52.0296 27.5708 52.0307 27.5535 52.0353C27.5362 52.0399 27.5199 52.0478 27.5057 52.0587C27.4914 52.0696 27.4795 52.0831 27.4705 52.0987C27.4615 52.1142 27.4556 52.1313 27.4532 52.1491C27.4509 52.1668 27.452 52.1849 27.4566 52.2023C27.4612 52.2196 27.4691 52.2359 27.48 52.2501C31.964 58.1462 33.4617 65.3348 33.9285 70.327C34.4347 75.7394 33.8723 79.8037 33.8665 79.8442C33.8638 79.8635 33.8652 79.8832 33.8708 79.902C33.8763 79.9208 33.8858 79.9381 33.8986 79.9529C33.9114 79.9676 33.9272 79.9795 33.945 79.9876C33.9628 79.9957 33.9821 79.9999 34.0016 79.9999Z" fill="#3F3D56"/>
<path d="M30.3105 60.474C30.3393 60.474 30.3673 60.4649 30.3906 60.448C30.4139 60.4311 30.4312 60.4072 30.4401 60.3798C30.449 60.3523 30.449 60.3228 30.4401 60.2954C30.4313 60.268 30.4139 60.2441 30.3907 60.2271C29.1019 59.3531 27.7096 58.6429 26.2459 58.1131C23.9592 57.2743 20.4818 56.5139 16.902 57.6554C16.8849 57.6608 16.869 57.6695 16.8553 57.6811C16.8416 57.6926 16.8303 57.7068 16.8221 57.7227C16.8138 57.7387 16.8088 57.7561 16.8073 57.7739C16.8057 57.7918 16.8077 57.8098 16.8132 57.8269C16.8186 57.844 16.8274 57.8599 16.8389 57.8736C16.8505 57.8873 16.8646 57.8986 16.8805 57.9068C16.8965 57.9151 16.9138 57.9201 16.9317 57.9216C16.9495 57.923 16.9675 57.921 16.9846 57.9155C20.4911 56.7974 23.9054 57.5453 26.1522 58.3695C27.5924 58.8902 28.9623 59.5884 30.2305 60.4479C30.2537 60.4649 30.2817 60.474 30.3105 60.474Z" fill="#3F3D56"/>
<path d="M36.545 44.916C36.5471 44.8872 36.5401 44.8585 36.5249 44.834C36.5097 44.8095 36.4872 44.7905 36.4606 44.7796C36.4339 44.7687 36.4045 44.7666 36.3766 44.7735C36.3486 44.7804 36.3236 44.796 36.305 44.818C35.3421 46.043 34.535 47.3832 33.9021 48.8078C32.9024 51.0326 31.895 54.4529 32.7736 58.1126C32.7778 58.13 32.7853 58.1465 32.7958 58.161C32.8063 58.1755 32.8196 58.1878 32.8349 58.1972C32.8501 58.2066 32.8671 58.2129 32.8848 58.2157C32.9024 58.2185 32.9205 58.2177 32.9379 58.2136C32.9553 58.2094 32.9717 58.2018 32.9862 58.1912C33.0007 58.1807 33.0129 58.1674 33.0223 58.152C33.0316 58.1367 33.0378 58.1197 33.0406 58.102C33.0434 58.0843 33.0427 58.0662 33.0384 58.0488C32.1779 54.4641 33.1683 51.1059 34.1506 48.9199C34.7727 47.5182 35.5663 46.1994 36.5133 44.994C36.5319 44.972 36.543 44.9447 36.545 44.916Z" fill="#3F3D56"/>
<path d="M62.8198 79.8555H51.9757L51.9291 79.7708C51.7905 79.5188 51.6566 79.2519 51.5315 78.9776C50.4145 76.5816 49.9424 73.8412 49.5258 71.4235L49.2121 69.6011C49.1741 69.3804 49.2028 69.1534 49.2943 68.949C49.3859 68.7447 49.5362 68.5724 49.726 68.4542C49.9159 68.336 50.1366 68.2772 50.36 68.2854C50.5834 68.2936 50.7993 68.3685 50.98 68.5003C52.628 69.7018 54.2766 70.9022 55.9259 72.1013C56.5504 72.5566 57.2636 73.0835 57.9466 73.6529C58.0125 73.3322 58.0814 73.0106 58.1503 72.6934C58.1979 72.4745 58.3095 72.2747 58.4711 72.1196C58.6326 71.9646 58.8366 71.8614 59.057 71.8232C59.2774 71.785 59.5042 71.8136 59.7083 71.9053C59.9123 71.997 60.0845 72.1476 60.2026 72.3379L61.4714 74.3803C62.3968 75.8718 63.2135 77.3415 63.0471 78.9267C63.0479 78.946 63.0465 78.9653 63.0428 78.9843C63.0095 79.2446 62.9478 79.5006 62.8587 79.7474L62.8198 79.8555Z" fill="#F0F0F0"/>
<path d="M57.7676 37.1407L55.6748 29.3796C55.5852 29.051 55.3702 28.7709 55.0763 28.5998C54.7824 28.4286 54.4331 28.3801 54.1038 28.4648C53.9334 28.5085 53.7738 28.5866 53.6345 28.6942C53.4953 28.8018 53.3793 28.9367 53.2938 29.0907C53.2083 29.2447 53.155 29.4145 53.1371 29.5898C53.1192 29.765 53.1371 29.9421 53.1898 30.1103L55.6104 38.1054L56.8769 43.0257C56.6924 43.1668 56.5558 43.3614 56.4855 43.583C56.4153 43.8047 56.4149 44.0426 56.4843 44.2644C56.5537 44.4863 56.6896 44.6814 56.8735 44.8232C57.0575 44.965 57.2805 45.0466 57.5124 45.057C57.7442 45.0673 57.9736 45.006 58.1694 44.8811C58.3652 44.7563 58.5179 44.5741 58.6068 44.3593C58.6956 44.1445 58.7164 43.9075 58.6661 43.6805C58.6159 43.4535 58.4971 43.2475 58.3259 43.0905L57.7676 37.1407Z" fill="#A0616A"/>
<path d="M40.157 35.4693L46.5158 30.5661C46.7846 30.3576 46.9608 30.0515 47.0063 29.714C47.0519 29.3764 46.9631 29.0345 46.7593 28.7619C46.6538 28.6209 46.5208 28.5029 46.3683 28.4151C46.2159 28.3273 46.0472 28.2715 45.8725 28.2511C45.6978 28.2308 45.5208 28.2463 45.3523 28.2967C45.1838 28.3471 45.0273 28.4314 44.8923 28.5444L38.443 33.8405L34.3887 36.8931C34.188 36.7762 33.9564 36.724 33.7251 36.7437C33.4939 36.7633 33.2743 36.8538 33.0962 37.0029C32.918 37.1519 32.79 37.3523 32.7295 37.5768C32.669 37.8013 32.6789 38.039 32.758 38.2576C32.837 38.4762 32.9813 38.6652 33.1712 38.7988C33.3611 38.9324 33.5875 39.0042 33.8196 39.0044C34.0517 39.0046 34.2782 38.9332 34.4684 38.8C34.6585 38.6667 34.8032 38.478 34.8826 38.2595L40.157 35.4693Z" fill="#A0616A"/>
<path d="M45.3397 36.5965L45.0594 42.8686L53.8602 40.9521C53.1111 38.4318 52.6018 38.002 53.1646 36.248L45.3397 36.5965Z" fill="#A0616A"/>
<path d="M50.7511 25.0979H47.8186L46.5593 27.257L45.9593 27.2239C45.6658 27.2076 45.3721 27.2515 45.0961 27.3529C44.8201 27.4542 44.5676 27.6109 44.3541 27.8133C44.1407 28.0158 43.9706 28.2597 43.8544 28.5302C43.7382 28.8007 43.6782 29.0921 43.6782 29.3866L44.4176 30.5348C44.4176 30.5348 43.0953 32.8437 45 33.9795C45 33.9795 44.6603 36.1197 45 36.0967C45.3397 36.0737 46.1222 35.6381 45.3397 36.0737C44.5572 36.5092 44.6156 36.5677 44.7168 36.6691L44.8181 36.7706L53.046 38.1548C53.046 38.1548 53.2867 36.5567 53.3126 36.2716C53.3385 35.9865 53.1646 36.6834 53.3385 35.9865C53.5124 35.2896 53.7732 35.551 53.5124 35.2896C53.2516 35.0283 55.2024 31.7906 54.4009 30.5348L55.686 29.2789C55.686 28.0742 53.7549 27.0977 52.5526 27.0977H52.3986L50.7511 25.0979Z" fill="#E6E6E6"/>
<path d="M43.6857 77.4376H42.4987L41.9341 72.8506L43.6858 72.8507L43.6857 77.4376Z" fill="#A0616A"/>
<path d="M40.1033 79.192C40.1039 79.3253 40.1569 79.4529 40.2508 79.5472C40.3447 79.6415 40.472 79.6948 40.605 79.6957H42.8393L42.9085 79.5519L43.2245 78.8985L43.3469 79.5519L43.374 79.6957H44.2168L44.2047 79.5509L43.98 76.8509L43.686 76.8328L42.4159 76.7574L42.1039 76.7383V77.5445C41.8671 77.7968 40.009 78.7507 40.1033 79.192Z" fill="#2F2E41"/>
<path d="M61.3252 74.3225L60.327 74.9659L57.3752 71.4143L58.8486 70.4648L61.3252 74.3225Z" fill="#A0616A"/>
<path d="M59.2599 77.7401C59.3323 77.8518 59.4458 77.9304 59.5757 77.9588C59.7056 77.9872 59.8414 77.9631 59.9537 77.8917L61.8328 76.6805L61.8134 76.5221L61.7263 75.8013L62.1821 76.2844L62.2825 76.3906L62.9913 75.9338L62.903 75.8186L61.256 73.6697L60.999 73.8138L59.8901 74.4389L59.6174 74.592L60.0527 75.27C59.9898 75.6106 58.9423 77.4201 59.2599 77.7401Z" fill="#2F2E41"/>
<path d="M66.8619 79.9392L30.1097 79.9751C30.0731 79.9749 30.0379 79.9602 30.0121 79.9341C29.9862 79.9081 29.9717 79.8728 29.9717 79.836C29.9717 79.7993 29.9862 79.764 30.0121 79.738C30.0379 79.7119 30.0731 79.6972 30.1097 79.697L66.8619 79.6611C66.8986 79.6613 66.9337 79.6761 66.9596 79.7021C66.9855 79.7282 67 79.7634 67 79.8002C67 79.8369 66.9855 79.8722 66.9596 79.8982C66.9337 79.9243 66.8986 79.939 66.8619 79.9392Z" fill="#CACACA"/>
<path d="M53.7223 40.2434C53.7223 40.2434 48.0967 43.2249 45.1213 41.1907C45.1213 41.1907 44.4704 44.3493 44.2095 44.6106C43.9487 44.872 43.5332 44.9858 43.8279 45.2773C44.1226 45.5689 44.2867 45.9626 43.7264 46.4626C43.1662 46.9627 42.6076 46.804 43.1477 47.3189C43.6879 47.8338 41.5143 60.465 41.5143 60.465C41.5143 60.465 41.8621 72.2115 41.5143 72.5668C41.1665 72.922 40.7017 73.0016 41.1515 73.4409C41.6012 73.8803 41.6012 73.5395 41.6012 74.1454V74.7514L41.807 75.3536H44.63C44.63 75.3536 45.3112 74.5607 44.63 73.872C43.9487 73.1834 44.8373 72.9949 45.0451 72.3487C45.2529 71.7025 45.6006 72.3994 45.2529 71.7025C44.9051 71.0056 44.7381 71.1382 44.7346 70.6799C44.7312 70.2216 49.8609 52.2765 49.8609 52.2765L50.4822 62.2089L57.9554 73.0864L60.1551 71.4335C60.1551 71.4335 58.5535 69.1746 58.9281 68.864C59.3026 68.5535 57.8243 68.164 58.2904 67.8137C58.7566 67.4634 57.6344 67.1104 58.0573 66.646C58.4803 66.1816 57.4746 65.0113 56.8919 65.0113C56.3092 65.0113 55.4914 63.0603 55.4914 63.0603L56.7122 47.6479L53.7223 40.2434Z" fill="#2F2E41"/>
<path d="M47.7597 18.7581C47.7199 18.8105 47.4027 18.7823 47.0213 18.7265C46.2672 18.6161 46.1644 18.7472 45.6006 19.2611C44.7839 20.0054 45.2483 24.5451 44.8469 25.5288L44.7173 25.6245C44.9744 25.5753 45.227 25.5044 45.4723 25.4128C45.6109 24.9747 45.7498 24.5353 45.8897 24.0976C46.0217 24.4381 46.1048 24.7958 46.1362 25.1597C46.3304 25.0831 46.5234 24.8955 47.3346 24.6441C47.743 24.3664 50.6981 24.0873 51.078 23.9651C52.0422 20.6783 50.4884 19.3491 47.7597 18.7581Z" fill="#2F2E41"/>
<path d="M48.7574 23.8266C50.317 23.8266 51.5813 22.5598 51.5813 20.9971C51.5813 19.4345 50.317 18.1677 48.7574 18.1677C47.1978 18.1677 45.9335 19.4345 45.9335 20.9971C45.9335 22.5598 47.1978 23.8266 48.7574 23.8266Z" fill="#A0616A"/>
<path d="M50.5354 18.5088C50.3762 18.4853 50.2231 18.4315 50.0841 18.3503C50.0152 18.3086 49.9594 18.2483 49.9231 18.1764C49.8867 18.1045 49.8713 18.0237 49.8786 17.9434C49.9134 17.7424 50.1402 17.6223 50.3435 17.6346C50.5459 17.6638 50.7382 17.7418 50.9039 17.8618C50.8857 17.6675 50.8028 17.485 50.6687 17.3436C50.5345 17.2021 50.3568 17.11 50.164 17.0819C50.4314 17.0675 50.7093 17.0548 50.9565 17.1578C51.2037 17.2608 51.4098 17.5159 51.3652 17.7804C51.7808 17.7268 52.1907 18.0169 52.3623 18.4C52.5339 18.7831 52.4998 19.2329 52.3628 19.6297C52.3492 19.6904 52.3228 19.7476 52.2853 19.7972C52.2479 19.8469 52.2002 19.8879 52.1455 19.9174C52.0056 19.9706 51.8551 19.8814 51.7339 19.7935C51.1007 19.3342 50.5245 18.801 50.0173 18.2051" fill="#2F2E41"/>
<path d="M51.7666 24.0052C51.6469 24.0616 51.7092 24.2717 51.6162 24.3658C51.5758 24.4057 51.5271 24.436 51.4736 24.4547C51.4596 24.2793 51.4188 24.1072 51.3527 23.9442C51.3406 23.9146 51.3206 23.8815 51.2893 23.8841C51.2527 23.8885 51.2432 23.9364 51.2423 23.9721C51.2349 24.1493 51.1958 24.3237 51.1267 24.4869C51.1258 24.4887 51.1249 24.4913 51.1241 24.493C51.0971 24.4921 51.0693 24.4913 51.0432 24.4904C50.8415 24.4826 50.3946 23.9634 50.2955 24.1393C50.645 23.5182 51.071 22.5844 51.1362 21.8744C51.1588 21.7258 51.1478 21.574 51.1041 21.4301C51.0812 21.3586 51.0383 21.2951 50.9805 21.2473C50.9228 21.1994 50.8525 21.1691 50.778 21.1601C50.7413 21.1584 50.7047 21.1649 50.6707 21.1791C50.6368 21.1932 50.6064 21.2147 50.5818 21.242C50.5571 21.2693 50.5387 21.3018 50.528 21.337C50.5173 21.3722 50.5145 21.4094 50.5198 21.4458L50.4694 21.4389C50.0016 21.0573 50.4051 20.3944 49.8608 20.1322C49.6765 20.0433 48.5479 20.3404 48.3488 20.2881C48.3446 20.078 48.3018 19.8704 48.2228 19.6757C48.2106 19.6461 48.1906 19.613 48.1593 19.6156C48.1228 19.62 48.1132 19.6679 48.1124 19.7036C48.105 19.8808 48.0658 20.0552 47.9967 20.2184C47.7209 20.1792 47.4401 20.194 47.1699 20.262C46.9317 20.3247 46.7056 20.4327 46.4665 20.4902C46.3483 20.5265 46.224 20.5383 46.1011 20.5248C45.9782 20.5113 45.8594 20.4729 45.7518 20.4118C45.4484 20.208 45.3954 19.7567 45.5466 19.424C45.6561 19.2104 45.8041 19.019 45.9831 18.8595C46.1196 18.7271 46.2613 18.5999 46.403 18.4727C46.53 18.3586 46.6569 18.2445 46.7839 18.1303C46.9437 17.9797 47.1139 17.8405 47.2933 17.714C47.5798 17.5258 47.9017 17.3983 48.2391 17.3393C48.5766 17.2803 48.9225 17.291 49.2557 17.3707C49.6556 17.4665 50.1903 17.3315 50.5563 17.5188C50.7476 17.6173 51.171 17.9945 51.3388 18.1286C51.7683 18.471 51.4777 18.192 51.9474 18.3899C53.0676 18.8619 52.5722 23.6252 51.7666 24.0052Z" fill="#2F2E41"/>
<path d="M20.4992 44.6568C30.1713 44.6568 38.0121 36.8008 38.0121 27.1099C38.0121 17.419 30.1713 9.56299 20.4992 9.56299C10.827 9.56299 2.98621 17.419 2.98621 27.1099C2.98621 36.8008 10.827 44.6568 20.4992 44.6568Z" fill="white"/>
<path d="M20.4993 44.8318C10.7462 44.8318 2.81152 36.8817 2.81152 27.1098C2.81152 17.3378 10.7462 9.3877 20.4993 9.3877C30.2523 9.3877 38.187 17.3378 38.187 27.1098C38.187 36.8817 30.2523 44.8318 20.4993 44.8318ZM20.4993 9.738C10.939 9.738 3.16115 17.531 3.16115 27.1098C3.16115 36.6885 10.939 44.4815 20.4993 44.4815C30.0595 44.4815 37.8374 36.6885 37.8374 27.1098C37.8374 17.531 30.0595 9.738 20.4993 9.738Z" fill="#8480C3"/>
<path d="M18.1101 36.2423C17.8077 36.2423 17.5094 36.1717 17.2389 36.0362C16.9684 35.9006 16.7332 35.7039 16.5518 35.4614L11.774 29.0785C11.6205 28.8735 11.5088 28.6401 11.4453 28.3918C11.3819 28.1435 11.3678 27.8852 11.404 27.6314C11.4402 27.3777 11.5259 27.1336 11.6562 26.913C11.7866 26.6925 11.959 26.4998 12.1637 26.346C12.3683 26.1922 12.6012 26.0804 12.849 26.0167C13.0968 25.9531 13.3547 25.9391 13.608 25.9753C13.8612 26.0116 14.1049 26.0975 14.325 26.2281C14.5451 26.3587 14.7374 26.5314 14.8909 26.7365L18.0167 30.912L26.0449 18.8465C26.3317 18.4161 26.7772 18.1174 27.2837 18.0161C27.7902 17.9147 28.3161 18.0191 28.7458 18.3061C29.1755 18.5931 29.4739 19.0394 29.5753 19.5468C29.6768 20.0542 29.573 20.5811 29.2868 21.0119L19.7312 35.3731C19.5583 35.6328 19.3258 35.8472 19.0532 35.9984C18.7806 36.1495 18.4757 36.2329 18.1643 36.2417C18.1462 36.242 18.1281 36.2423 18.1101 36.2423Z" fill="#8480C3"/>
<path d="M38.5427 10.6594C38.5914 10.3239 38.2408 9.99505 37.7594 9.92489C37.2781 9.85472 36.8485 10.0698 36.7998 10.4053C36.751 10.7407 37.1017 11.0696 37.583 11.1397C38.0643 11.2099 38.494 10.9948 38.5427 10.6594Z" fill="#E6E6E6"/>
<path d="M44.2731 10.0991C44.3218 9.76358 43.9711 9.43475 43.4898 9.36459C43.0085 9.29443 42.5788 9.5095 42.5301 9.84497C42.4814 10.1804 42.8321 10.5093 43.3134 10.5794C43.7947 10.6496 44.2244 10.4345 44.2731 10.0991Z" fill="#3F3D56"/>
<path d="M36.9734 6.01092C37.0221 5.67544 36.6714 5.34661 36.1901 5.27645C35.7088 5.20628 35.2791 5.42135 35.2304 5.75683C35.1817 6.0923 35.5324 6.42114 36.0137 6.4913C36.495 6.56147 36.9247 6.34639 36.9734 6.01092Z" fill="#FF6584"/>
<path d="M34.4834 4.10691C34.4857 3.79894 34.3143 3.54796 34.1004 3.54634C33.8866 3.54472 33.7114 3.79307 33.709 4.10105C33.7067 4.40903 33.8782 4.66 34.092 4.66162C34.3058 4.66324 34.4811 4.41489 34.4834 4.10691Z" fill="#E6E6E6"/>
<path d="M33.639 0.560528C33.6414 0.252551 33.4699 0.00157165 33.2561 -4.84276e-05C33.0422 -0.0016685 32.867 0.246684 32.8647 0.554661C32.8624 0.862639 33.0338 1.11362 33.2476 1.11524C33.4615 1.11686 33.6367 0.868506 33.639 0.560528Z" fill="#3F3D56"/>
<path d="M40.2056 6.80198C40.2079 6.49401 40.0364 6.24303 39.8226 6.24141C39.6088 6.23979 39.4335 6.48814 39.4312 6.79612C39.4289 7.10409 39.6003 7.35507 39.8142 7.35669C40.028 7.35831 40.2032 7.10996 40.2056 6.80198Z" fill="#E6E6E6"/>
<path d="M37.4363 8.18724C37.4386 7.87927 37.2671 7.62829 37.0533 7.62667C36.8395 7.62505 36.6642 7.8734 36.6619 8.18138C36.6596 8.48935 36.8311 8.74033 37.0449 8.74195C37.2587 8.74357 37.4339 8.49522 37.4363 8.18724Z" fill="#FF6584"/>
<path d="M41.2913 10.7478C41.2936 10.4398 41.1221 10.1888 40.9083 10.1872C40.6945 10.1856 40.5192 10.4339 40.5169 10.7419C40.5146 11.0499 40.686 11.3009 40.8999 11.3025C41.1137 11.3041 41.2889 11.0558 41.2913 10.7478Z" fill="#3F3D56"/>
<path d="M5.67799 52.2284C5.7267 51.893 5.37601 51.5641 4.8947 51.494C4.41339 51.4238 3.98373 51.6389 3.93501 51.9744C3.88629 52.3098 4.23698 52.6387 4.71829 52.7088C5.1996 52.779 5.62927 52.5639 5.67799 52.2284Z" fill="#E6E6E6"/>
<path d="M11.4086 51.6681C11.4573 51.3327 11.1066 51.0038 10.6253 50.9337C10.144 50.8635 9.71432 51.0786 9.6656 51.4141C9.61688 51.7495 9.96757 52.0784 10.4489 52.1485C10.9302 52.2187 11.3599 52.0036 11.4086 51.6681Z" fill="#3F3D56"/>
<path d="M4.10889 47.5803C4.15761 47.2448 3.80692 46.9159 3.32561 46.8458C2.8443 46.7756 2.41463 46.9907 2.36592 47.3262C2.3172 47.6616 2.66789 47.9905 3.1492 48.0606C3.63051 48.1308 4.06018 47.9157 4.10889 47.5803Z" fill="#FF6584"/>
<path d="M1.61877 45.6763C1.62109 45.3683 1.44963 45.1173 1.2358 45.1157C1.02197 45.1141 0.846743 45.3624 0.844419 45.6704C0.842094 45.9784 1.01356 46.2293 1.22739 46.231C1.44122 46.2326 1.61645 45.9842 1.61877 45.6763Z" fill="#E6E6E6"/>
<path d="M0.774406 42.1296C0.77673 41.8216 0.605271 41.5707 0.391441 41.569C0.17761 41.5674 0.00238258 41.8158 5.82271e-05 42.1238C-0.00226612 42.4317 0.169193 42.6827 0.383023 42.6843C0.596854 42.6859 0.772081 42.4376 0.774406 42.1296Z" fill="#3F3D56"/>
<path d="M7.34093 48.3711C7.34326 48.0631 7.1718 47.8121 6.95797 47.8105C6.74413 47.8089 6.56891 48.0572 6.56659 48.3652C6.56426 48.6732 6.73572 48.9242 6.94955 48.9258C7.16338 48.9274 7.33861 48.6791 7.34093 48.3711Z" fill="#E6E6E6"/>
<path d="M4.57165 49.7566C4.57398 49.4486 4.40252 49.1976 4.18869 49.196C3.97485 49.1944 3.79962 49.4427 3.7973 49.7507C3.79498 50.0587 3.96644 50.3097 4.18027 50.3113C4.3941 50.3129 4.56933 50.0646 4.57165 49.7566Z" fill="#FF6584"/>
<path d="M8.42651 52.3169C8.42883 52.0089 8.25737 51.7579 8.04354 51.7563C7.82971 51.7547 7.65448 52.003 7.65216 52.311C7.64983 52.619 7.82129 52.87 8.03512 52.8716C8.24895 52.8732 8.42418 52.6249 8.42651 52.3169Z" fill="#3F3D56"/>
</g>
<defs>
<clipPath id="clip0_18_1849">
<rect width="67" height="80" fill="white"/>
</clipPath>
</defs>
</svg>
