<svg width="17" height="18" viewBox="0 0 17 18" fill="none" xmlns="http://www.w3.org/2000/svg">
<path d="M6.27465 1.12368C4.5898 1.70817 3.13679 2.81755 2.12904 4.28887C1.12129 5.76019 0.611925 7.5159 0.675754 9.29811C0.739583 11.0803 1.37325 12.7951 2.48367 14.1905C3.59409 15.586 5.12274 16.5886 6.84508 17.0511C8.24143 17.4114 9.70438 17.4272 11.1082 17.0972C12.3799 16.8115 13.5556 16.2005 14.5203 15.3239C15.5242 14.3838 16.253 13.1878 16.6281 11.8645C17.0359 10.4254 17.1084 8.91207 16.8402 7.44062H8.99903V10.6933H13.5401C13.4494 11.2121 13.2549 11.7072 12.9683 12.1491C12.6817 12.5909 12.3089 12.9704 11.8723 13.2648C11.3178 13.6317 10.6927 13.8785 10.0371 13.9894C9.37969 14.1117 8.70533 14.1117 8.04787 13.9894C7.38152 13.8516 6.75115 13.5766 6.19692 13.1819C5.30656 12.5516 4.63801 11.6562 4.28669 10.6235C3.92943 9.57138 3.92943 8.43079 4.28669 7.3787C4.53677 6.64124 4.95018 5.96979 5.49607 5.41446C6.12077 4.76728 6.91166 4.30468 7.78196 4.0774C8.65227 3.85012 9.56836 3.86695 10.4297 4.12604C11.1026 4.3326 11.7179 4.69349 12.2267 5.17996C12.7387 4.67057 13.2498 4.15985 13.7601 3.64782C14.0236 3.37249 14.3108 3.11032 14.5703 2.8284C13.7938 2.10578 12.8823 1.54348 11.8881 1.17375C10.0776 0.516349 8.09659 0.498683 6.27465 1.12368Z" fill="white"/>
<path d="M6.27493 1.12335C8.09672 0.497921 10.0777 0.515123 11.8884 1.17209C12.8828 1.54434 13.7938 2.10934 14.5693 2.83465C14.3058 3.11658 14.0278 3.38006 13.7591 3.65407C13.2479 4.16435 12.7372 4.67286 12.2269 5.17962C11.7182 4.69316 11.1029 4.33226 10.43 4.1257C9.56893 3.8657 8.65287 3.8479 7.78233 4.07425C6.91179 4.3006 6.12042 4.76235 5.49503 5.40885C4.94915 5.96418 4.53574 6.63564 4.28566 7.3731L1.55469 5.25867C2.53221 3.32019 4.22473 1.83741 6.27493 1.12335Z" fill="#E33629"/>
<path d="M0.829858 7.35346C0.976644 6.62598 1.22034 5.92148 1.55443 5.25879L4.2854 7.37849C3.92814 8.43057 3.92814 9.57116 4.2854 10.6232C3.37552 11.3259 2.46519 12.032 1.55443 12.7416C0.718077 11.0768 0.463005 9.18003 0.829858 7.35346Z" fill="#F8BD00"/>
<path d="M8.99961 7.43896H16.8408C17.109 8.91041 17.0364 10.4238 16.6287 11.8628C16.2535 13.1861 15.5248 14.3821 14.5208 15.3223C13.6395 14.6346 12.7542 13.9522 11.8729 13.2645C12.3098 12.9698 12.6828 12.5899 12.9693 12.1475C13.2559 11.7052 13.4503 11.2096 13.5407 10.6903H8.99961C8.99829 9.60741 8.99961 8.52319 8.99961 7.43896Z" fill="#587DBD"/>
<path d="M1.55371 12.7414C2.46447 12.0388 3.3748 11.3327 4.28468 10.623C4.6367 11.6561 5.3062 12.5516 6.19755 13.1814C6.7535 13.5744 7.38523 13.8472 8.05245 13.9824C8.70991 14.1047 9.38427 14.1047 10.0417 13.9824C10.6973 13.8715 11.3223 13.6247 11.8769 13.2578C12.7582 13.9455 13.6435 14.6279 14.5248 15.3156C13.5604 16.1927 12.3846 16.8041 11.1128 17.0902C9.70896 17.4202 8.24601 17.4044 6.84966 17.0441C5.74529 16.7492 4.71373 16.2294 3.81964 15.5172C2.8733 14.7659 2.10037 13.819 1.55371 12.7414Z" fill="#319F43"/>
</svg>
