<svg width="75" height="80" viewBox="0 0 75 80" fill="none" xmlns="http://www.w3.org/2000/svg">
<g clip-path="url(#clip0_18_1850)">
<path d="M42.1439 36.6584C61.9661 36.6584 57.5387 27.3093 57.5387 47.2509C57.5387 67.1925 55.7883 61.3951 35.966 61.3951C16.1437 61.3951 0 51.852 0 31.9104C0 11.9688 22.3218 36.6584 42.1439 36.6584Z" fill="#E6E6E6"/>
<path d="M24.3514 29.5562C25.2696 28.7929 26.4055 28.6509 26.8882 29.2388C27.3708 29.8266 27.0173 30.9219 26.0992 31.6854C25.7364 31.9954 25.305 32.2135 24.8413 32.3214L20.9102 35.5061L19.464 33.6184L23.4929 30.679C23.6858 30.241 23.9802 29.8559 24.3514 29.5559V29.5562Z" fill="#ED9DA0"/>
<path d="M4.40089 26.9707L3.55615 31.431L7.76673 32.6252L7.24359 27.8632L4.40089 26.9707Z" fill="#ED9DA0"/>
<path d="M1.63029 36.7418C1.62831 36.601 1.6296 35.3721 2.53367 34.596C3.5722 33.7041 5.03757 34.0651 5.55157 34.1917C6.73888 34.4842 6.83627 34.9966 7.95123 35.523C10.0372 36.508 7.42351 36.0038 8.66478 35.688C9.09441 35.5787 15.2755 35.1474 16.814 34.1947C19.8064 32.3418 21.8453 31.2183 21.8453 31.2183L23.1782 33.9001C23.1782 33.9001 21.2509 36.5962 18.5383 38.5935C15.7556 40.6423 14.3643 41.6666 12.2503 42.0628C12.0682 42.0969 7.59027 42.866 3.98364 40.1553C3.16096 39.537 1.65365 38.404 1.63019 36.7421L1.63029 36.7418Z" fill="#8480C3"/>
<path d="M5.76501 29.9214C8.32937 29.9214 10.4082 27.8301 10.4082 25.2503C10.4082 22.6704 8.32937 20.5791 5.76501 20.5791C3.20065 20.5791 1.12183 22.6704 1.12183 25.2503C1.12183 27.8301 3.20065 29.9214 5.76501 29.9214Z" fill="#ED9DA0"/>
<path d="M42.1288 56.6328L37.347 51.7085L34.8785 54.2989L38.4412 59.0204L41.9749 59.427L42.1288 56.6328Z" fill="#ED9DA0"/>
<path d="M14.8242 47.3987C15.1039 47.4221 15.9927 47.6012 16.8422 47.1309C17.2417 46.9012 17.5777 46.5747 17.8197 46.1811C19.0657 44.2986 23.8478 41.363 28.1397 41.1821C29.1116 41.1412 29.7513 41.2545 30.3328 41.5594C31.1577 41.9919 31.4865 42.6112 32.5328 44.0621C33.1051 44.8558 33.7384 45.6035 34.3176 46.3917C37.7087 51.0083 38.9943 51.3707 38.8629 52.8509C38.7171 54.493 36.9567 56.051 35.7865 55.8711C35.3073 55.7975 35.1218 55.4623 34.4816 54.7837C32.6045 52.7941 31.8281 53.1616 30.4913 51.6376C28.931 49.858 29.1353 48.3831 28.3212 48.3261C27.5659 48.2732 27.2455 49.5318 25.6338 51.2037C24.8963 51.9687 24.3716 52.3197 22.7716 53.4362C16.5412 57.7847 16.4417 58.0902 15.1844 58.437C14.6342 58.5888 10.7297 59.6657 9.33886 57.9519C7.16241 55.2701 12.3043 47.1873 14.8247 47.398L14.8242 47.3987Z" fill="#2F2E41"/>
<path d="M40.6668 57.7453C41.0185 57.5864 41.4298 57.4007 41.562 56.9734C41.6068 56.8234 41.6168 56.665 41.5913 56.5104C41.5658 56.3559 41.5055 56.2092 41.415 56.0817C41.2015 55.7976 40.8855 55.7601 40.8982 55.7098C40.9181 55.6332 41.6649 55.6632 42.4853 55.9549C42.6401 56.0099 43.3414 56.2677 44.2334 56.9683C44.9482 57.5297 44.852 57.6422 45.3002 57.9659C46.6759 58.9595 47.9663 58.1764 48.7107 59.1082C48.998 59.4681 49.1206 59.978 48.9996 60.3912C48.7568 61.2202 47.576 61.5055 46.9307 61.6528C45.3765 62.0075 44.2001 61.718 42.9718 61.5097C38.7943 60.8016 36.4472 61.4465 36.1331 60.4729C36.0734 60.2887 36.1702 60.3044 36.4923 58.9521C36.8103 57.6175 36.7998 57.251 37.0705 57.1441C37.478 56.9832 37.7517 57.715 38.7784 57.9654C39.6882 58.1874 40.4389 57.8483 40.6666 57.7455L40.6668 57.7453Z" fill="#2F2E41"/>
<path d="M33.6274 72.7419L32.4193 65.9658L28.931 66.7148L29.2436 72.6342L31.9407 74.9669L33.6274 72.7419Z" fill="#ED9DA0"/>
<path d="M16.1888 49.6762C16.4074 49.8535 17.0427 50.5038 18.0081 50.5947C18.4668 50.6303 18.9271 50.55 19.3471 50.361C21.4289 49.5072 27.0244 49.7797 30.6766 52.0548C31.5036 52.57 31.9697 53.0252 32.2807 53.606C32.7215 54.4295 32.6484 55.128 32.7041 56.9196C32.7347 57.8994 32.8414 58.8761 32.8805 59.8558C33.1091 65.5916 33.971 66.6177 33.0362 67.7682C31.9989 69.0447 29.6726 69.3393 28.8048 68.5295C28.4494 68.1978 28.483 67.8156 28.332 66.8925C27.8893 64.1857 27.0415 64.0512 26.7863 62.0352C26.4881 59.6814 27.4809 58.5759 26.8391 58.0691C26.2439 57.5992 25.276 58.459 23.0091 58.932C21.9719 59.1485 21.3414 59.142 19.3943 59.162C11.8115 59.2403 11.5589 59.437 10.325 59.0137C9.78507 58.8284 5.95323 57.514 5.75894 55.31C5.45484 51.8613 14.2212 48.0781 16.189 49.6761L16.1888 49.6762Z" fill="#2F2E41"/>
<path d="M31.7966 72.8368C32.1762 72.904 32.6202 72.9826 32.9681 72.704C33.0889 72.6051 33.1855 72.4797 33.2507 72.3374C33.3159 72.1951 33.3479 72.0397 33.3441 71.883C33.3261 71.5273 33.0858 71.3177 33.1241 71.2831C33.1829 71.2308 33.7846 71.6777 34.3005 72.3829C34.3979 72.5159 34.8343 73.1254 35.1813 74.2091C35.4596 75.0773 35.317 75.1161 35.5072 75.6371C36.0909 77.2367 37.5958 77.3174 37.6917 78.5089C37.7286 78.9688 37.5451 79.4604 37.2146 79.7337C36.551 80.2825 35.4146 79.8516 34.7985 79.6089C33.3144 79.0244 32.5028 78.1203 31.6025 77.2539C28.5416 74.308 26.239 73.5158 26.5225 72.5327C26.5762 72.3466 26.6473 72.4142 27.6687 71.4772C28.6767 70.5524 28.8727 70.2433 29.1563 70.3074C29.5837 70.4045 29.4013 71.1647 30.1111 71.9519C30.7401 72.6496 31.5505 72.793 31.7965 72.8365L31.7966 72.8368Z" fill="#2F2E41"/>
<path d="M6.39799 26.1429C6.57876 25.4924 6.35167 25.2554 6.58313 24.9631C6.58313 24.9631 6.67625 24.8456 7.50877 24.5285C7.2631 23.0947 7.44705 22.8523 7.44705 22.8523C7.65903 22.5728 8.08359 22.5053 8.37269 22.5423C8.98408 22.6196 9.09231 23.1756 9.48347 23.1631C10.0239 23.1459 10.672 22.0576 10.4708 21.1144C10.3067 20.3446 9.59915 19.7736 9.42175 19.8728C9.24585 19.971 8.61279 19.5375 8.37269 19.6244C8.20871 19.6837 7.43691 19.6044 7.26191 19.6865C7.0708 19.7757 6.5235 20.3311 6.47113 20.2611C6.10749 19.7748 6.11525 19.605 5.90466 19.5002C5.53079 19.3146 5.12442 19.6578 4.42388 19.9969C2.98196 20.6947 2.55979 20.2785 1.89374 20.8661C1.55733 21.1629 1.37696 21.7302 1.02982 22.8527C0.544442 24.4223 0.301753 25.2074 0.536094 25.9567C0.775205 26.721 1.12721 26.5547 1.64688 27.633C2.22527 28.8332 2.59288 29.4168 3.13948 29.6917C3.56195 29.9041 3.67385 29.883 3.93016 29.4954C4.36902 28.8317 3.23449 27.9339 3.62207 26.8879C3.85959 26.2459 4.59213 25.7591 5.04143 25.8946C5.54937 26.0479 5.58684 26.9644 5.90535 26.95C6.17816 26.9379 6.36758 26.2564 6.39908 26.143L6.39799 26.1429Z" fill="#2F2E41"/>
<path d="M20.3171 69.6159L13.6478 67.242C13.4691 67.1782 13.3228 67.0457 13.2412 66.8735C13.1595 66.7014 13.1491 66.5036 13.2122 66.3238L16.3368 57.4398C16.4001 57.26 16.5319 57.1128 16.703 57.0306C16.8741 56.9485 17.0707 56.938 17.2495 57.0015L23.9188 59.3756C24.0975 59.4393 24.2437 59.5718 24.3254 59.744C24.4071 59.9162 24.4175 60.1139 24.3543 60.2938C24.3173 63.6317 23.1864 66.5596 21.2298 69.1778C21.1664 69.3576 21.0347 69.5047 20.8636 69.5869C20.6924 69.6691 20.4959 69.6794 20.3171 69.6159Z" fill="#E6E6E6"/>
<path d="M17.8544 68.1405L14.3039 66.8766C14.1366 66.8168 13.9997 66.6927 13.9232 66.5315C13.8467 66.3704 13.8369 66.1852 13.8959 66.0168L16.6764 58.1112C16.7359 57.943 16.8593 57.8053 17.0195 57.7285C17.1797 57.6516 17.3637 57.6419 17.5311 57.7013L23.2631 59.7409C23.4304 59.8006 23.5673 59.9247 23.6437 60.0859C23.7202 60.2471 23.73 60.4322 23.671 60.6007C23.3431 62.9802 22.839 65.1152 21.6622 66.3121C21.3976 67.062 20.848 67.6757 20.1342 68.0185C19.4203 68.3612 18.6004 68.4051 17.8544 68.1405Z" fill="white"/>
<path d="M16.4274 62.0041C16.4528 61.9326 16.5054 61.8743 16.5735 61.8418C16.6417 61.8093 16.7199 61.8054 16.7909 61.8308L21.2557 63.4341C21.3268 63.4596 21.3848 63.5124 21.4171 63.581C21.4494 63.6496 21.4534 63.7283 21.428 63.7997C21.4026 63.8712 21.3501 63.9296 21.2819 63.9621C21.2138 63.9946 21.1356 63.9986 21.0645 63.9731L16.5992 62.3697C16.5283 62.344 16.4704 62.2911 16.4382 62.2226C16.406 62.1541 16.4021 62.0755 16.4274 62.0041Z" fill="#8480C3"/>
<path d="M20.4343 61.7762C20.4597 61.7048 20.5123 61.6465 20.5805 61.614C20.6486 61.5815 20.7268 61.5776 20.7978 61.603L21.7801 61.9557C21.8512 61.9812 21.9092 62.0341 21.9415 62.1027C21.9738 62.1712 21.9777 62.2499 21.9524 62.3214C21.927 62.3929 21.8745 62.4513 21.8063 62.4838C21.7382 62.5163 21.66 62.5202 21.5889 62.4947L20.6066 62.142C20.5356 62.1164 20.4776 62.0635 20.4453 61.995C20.413 61.9264 20.409 61.8477 20.4343 61.7762Z" fill="#8480C3"/>
<path d="M15.5865 64.3738C15.6119 64.3023 15.6645 64.244 15.7327 64.2115C15.8008 64.179 15.879 64.175 15.95 64.2004L20.4148 65.8037C20.4859 65.8292 20.5439 65.882 20.5763 65.9506C20.6086 66.0192 20.6125 66.0979 20.5871 66.1693C20.5618 66.2408 20.5092 66.2992 20.4411 66.3317C20.3729 66.3642 20.2947 66.3682 20.2236 66.3427L15.7588 64.7394C15.6878 64.7138 15.6298 64.661 15.5975 64.5924C15.5652 64.5239 15.5613 64.4452 15.5865 64.3738Z" fill="#8480C3"/>
<path d="M16.0069 63.1889C16.0324 63.1174 16.0849 63.0591 16.1531 63.0266C16.2212 62.9941 16.2994 62.9902 16.3705 63.0156L20.8353 64.6189C20.9063 64.6444 20.9644 64.6973 20.9967 64.7658C21.029 64.8344 21.0329 64.9131 21.0075 64.9846C20.9822 65.056 20.9296 65.1145 20.8615 65.147C20.7933 65.1795 20.7151 65.1834 20.644 65.1579L16.1792 63.5546C16.1082 63.529 16.0502 63.4761 16.0179 63.4076C15.9856 63.339 15.9817 63.2604 16.0069 63.1889Z" fill="#8480C3"/>
<path d="M2.88061 30.6129C3.83079 29.5411 7.70059 30.6505 8.06422 32.3511C8.21329 33.051 7.66203 33.346 7.81736 34.1515C8.04454 35.3295 9.33093 35.2493 10.2858 36.4485C11.6413 38.1511 10.2448 39.8154 11.7666 42.6568C12.0917 43.2639 12.3659 43.7756 12.9393 44.2709C14.2545 45.4074 15.6617 49.2181 15.2847 49.9825C14.6567 51.2542 15.3677 52.1879 15.4081 53.7074C15.4586 55.6085 14.454 58.2439 12.446 59.1085C10.1901 60.0799 7.46843 58.4711 6.15163 56.8736C5.36583 55.9204 5.13795 55.041 4.79399 53.9558C3.25766 49.1051 2.38966 49.5439 1.21478 45.6988C-0.128355 41.3032 -0.39241 36.1536 1.21478 34.5241C1.42775 34.3081 2.014 33.8088 2.38748 32.9099C2.88975 31.7002 2.45585 31.0927 2.8812 30.6129H2.88061Z" fill="#8480C3"/>
<path d="M16.9201 55.5626C17.6568 56.5042 17.771 57.6499 17.1752 58.1215C16.5794 58.5931 15.4996 58.2115 14.7627 57.2698C14.4634 56.8977 14.2569 56.4589 14.1606 55.9901L11.0897 51.9609L12.6766 50.7432L15.8243 54.6725C16.2549 54.8768 16.6306 55.1819 16.92 55.5623L16.9201 55.5626Z" fill="#ED9DA0"/>
<path d="M5.67233 34.6976C5.80898 34.6669 7.00473 34.4176 7.94477 35.1494C9.02465 35.9902 8.97237 37.507 8.95399 38.0388C8.91165 39.2677 8.43284 39.4685 8.14811 40.6737C7.61533 42.9292 8.63001 45.0252 9.19062 46.1832C9.72573 47.2644 10.4197 48.2583 11.2491 49.1315C13.6627 51.701 15.8163 53.0523 15.8163 53.0523L13.5029 55.1214C13.5029 55.1214 9.81771 53.9917 7.32066 51.7275C4.75921 49.4052 0.820246 41.1885 0.00373163 39.187C-0.0666302 39.0147 0.929466 41.8165 2.83142 37.7118C3.26522 36.7754 4.06007 35.0599 5.67253 34.6976H5.67233Z" fill="#8480C3"/>
<path d="M37.3447 33.7726C34.2595 33.7726 31.2437 32.8522 28.6784 31.1279C26.1132 29.4035 24.1139 26.9527 22.9332 24.0852C21.7526 21.2177 21.4437 18.0624 22.0456 15.0183C22.6475 11.9742 24.1331 9.17797 26.3147 6.98329C28.4962 4.78861 31.2756 3.29401 34.3015 2.6885C37.3274 2.08299 40.4638 2.39376 43.3141 3.58151C46.1644 4.76927 48.6007 6.78066 50.3147 9.36133C52.0287 11.942 52.9436 14.976 52.9436 18.0798C52.9436 20.1406 52.5401 22.1812 51.7562 24.0852C50.9722 25.9891 49.8232 27.7191 48.3748 29.1763C46.9263 30.6335 45.2067 31.7894 43.3141 32.5781C41.4216 33.3667 39.3932 33.7726 37.3447 33.7726ZM37.3447 2.63422C34.3081 2.63422 31.3397 3.54009 28.8149 5.23729C26.2901 6.93449 24.3222 9.34678 23.1602 12.1691C21.9982 14.9914 21.6941 18.0971 22.2865 21.0932C22.879 24.0894 24.3412 26.8416 26.4884 29.0017C28.6356 31.1618 31.3713 32.6328 34.3495 33.2288C37.3277 33.8248 40.4148 33.5189 43.2202 32.3498C46.0256 31.1807 48.4234 29.201 50.1105 26.661C51.7975 24.1209 52.6979 21.1347 52.6979 18.0798C52.6979 13.9833 51.0803 10.0547 48.201 7.15805C45.3218 4.26143 41.4166 2.63422 37.3447 2.63422Z" fill="#424057"/>
<path d="M53.106 15.9962H63.1081C63.1407 15.9962 63.1719 15.9832 63.195 15.96C63.218 15.9368 63.2309 15.9054 63.2309 15.8726C63.2309 15.8398 63.218 15.8084 63.195 15.7852C63.1719 15.762 63.1407 15.749 63.1081 15.749H53.106C53.0734 15.749 53.0422 15.762 53.0191 15.7852C52.9961 15.8084 52.9832 15.8398 52.9832 15.8726C52.9832 15.9054 52.9961 15.9368 53.0191 15.96C53.0422 15.9832 53.0734 15.9962 53.106 15.9962Z" fill="#3F3D56"/>
<path d="M66.6474 25.8231C64.6195 23.1095 63.4474 20.075 63.409 16.615C63.3437 16.4285 63.3546 16.2237 63.4392 16.0453C63.5238 15.8669 63.6753 15.7295 63.8605 15.6634L70.7728 13.2029C70.9582 13.1371 71.1618 13.1481 71.3392 13.2332C71.5165 13.3184 71.653 13.4708 71.7188 13.6571L74.9572 22.8652C75.0225 23.0517 75.0117 23.2566 74.927 23.435C74.8424 23.6134 74.6909 23.7508 74.5057 23.8169L67.5933 26.2774C67.408 26.3431 67.2044 26.3322 67.027 26.2471C66.8497 26.1619 66.7132 26.0095 66.6474 25.8232V25.8231Z" fill="#E6E6E6"/>
<path d="M66.1998 22.8531C64.9801 21.6125 64.4581 19.3997 64.1179 16.9335C64.0567 16.7589 64.0669 16.567 64.1461 16.3999C64.2254 16.2328 64.3673 16.1042 64.5408 16.0423L70.4813 13.9277C70.6548 13.8662 70.8456 13.8764 71.0117 13.9561C71.1777 14.0359 71.3056 14.1787 71.3672 14.3531L74.2492 22.5469C74.3104 22.7215 74.3002 22.9134 74.2209 23.0804C74.1417 23.2475 73.9998 23.3761 73.8263 23.4381L70.1463 24.7478C69.3732 25.022 68.5235 24.9765 67.7837 24.6213C67.0439 24.2661 66.4744 23.6302 66.2 22.853L66.1998 22.8531Z" fill="white"/>
<path d="M71.4467 17.6973L66.8193 19.359C66.7828 19.3721 66.7441 19.3779 66.7055 19.3759C66.6668 19.374 66.6289 19.3644 66.5939 19.3477C66.5589 19.3311 66.5275 19.3076 66.5015 19.2787C66.4756 19.2499 66.4555 19.2161 66.4425 19.1794C66.4294 19.1427 66.4237 19.1038 66.4257 19.0649C66.4276 19.026 66.4371 18.9879 66.4537 18.9527C66.4703 18.9175 66.4936 18.8859 66.5223 18.8598C66.551 18.8336 66.5845 18.8135 66.621 18.8004L71.2485 17.1386C71.3221 17.1122 71.4032 17.1162 71.4738 17.1499C71.5445 17.1836 71.599 17.2442 71.6252 17.3183C71.6515 17.3923 71.6475 17.4739 71.614 17.545C71.5805 17.6161 71.5204 17.6708 71.4467 17.6973Z" fill="#8480C3"/>
<path d="M67.2937 17.4616L66.2756 17.8272C66.2392 17.8403 66.2005 17.846 66.1618 17.8441C66.1231 17.8422 66.0852 17.8326 66.0503 17.8159C66.0153 17.7992 65.9839 17.7758 65.9579 17.7469C65.9319 17.718 65.9119 17.6842 65.8989 17.6476C65.8859 17.6109 65.8801 17.572 65.8821 17.5331C65.884 17.4942 65.8935 17.456 65.9101 17.4208C65.9267 17.3856 65.95 17.3541 65.9787 17.3279C66.0074 17.3018 66.041 17.2816 66.0775 17.2685L67.0955 16.903C67.132 16.8899 67.1706 16.8842 67.2093 16.8861C67.248 16.888 67.2859 16.8976 67.3209 16.9143C67.3559 16.931 67.3873 16.9544 67.4132 16.9833C67.4392 17.0122 67.4593 17.0459 67.4723 17.0826C67.4853 17.1193 67.491 17.1582 67.4891 17.1971C67.4872 17.236 67.4777 17.2742 67.4611 17.3094C67.4445 17.3446 67.4212 17.3761 67.3925 17.4023C67.3638 17.4284 67.3302 17.4486 67.2938 17.4617L67.2937 17.4616Z" fill="#8480C3"/>
<path d="M72.3181 20.1531L67.6905 21.8149C67.6541 21.828 67.6154 21.8337 67.5767 21.8317C67.5381 21.8298 67.5002 21.8202 67.4652 21.8035C67.4302 21.7869 67.3988 21.7634 67.3728 21.7345C67.3469 21.7056 67.3268 21.6719 67.3138 21.6352C67.3008 21.5985 67.2951 21.5596 67.297 21.5207C67.2989 21.4818 67.3085 21.4437 67.325 21.4085C67.3416 21.3733 67.3649 21.3417 67.3936 21.3156C67.4224 21.2895 67.4559 21.2693 67.4924 21.2562L72.1198 19.5944C72.1935 19.568 72.2746 19.572 72.3452 19.6057C72.4159 19.6394 72.4704 19.6999 72.4967 19.774C72.5229 19.8481 72.5189 19.9297 72.4854 20.0008C72.4519 20.0719 72.3918 20.1267 72.3181 20.1531Z" fill="#8480C3"/>
<path d="M71.8824 18.9253L67.2547 20.5871C67.1814 20.6123 67.1011 20.6074 67.0313 20.5736C66.9615 20.5397 66.9077 20.4795 66.8817 20.4061C66.8556 20.3327 66.8593 20.2519 66.892 20.1812C66.9247 20.1105 66.9838 20.0556 67.0564 20.0284L71.684 18.3666C71.7577 18.3402 71.8387 18.3443 71.9094 18.378C71.98 18.4116 72.0345 18.4722 72.0608 18.5463C72.087 18.6204 72.083 18.7019 72.0495 18.773C72.016 18.8441 71.9558 18.8989 71.8822 18.9253H71.8824Z" fill="#8480C3"/>
<path d="M63.8023 17.6026C64.4807 17.6026 65.0306 17.0494 65.0306 16.367C65.0306 15.6846 64.4807 15.1313 63.8023 15.1313C63.124 15.1313 62.5741 15.6846 62.5741 16.367C62.5741 17.0494 63.124 17.6026 63.8023 17.6026Z" fill="#8480C3"/>
<path d="M30.818 4.21273H20.8159C20.7834 4.21273 20.7521 4.19971 20.7291 4.17653C20.7061 4.15336 20.6931 4.12193 20.6931 4.08915C20.6931 4.05638 20.7061 4.02495 20.7291 4.00177C20.7521 3.9786 20.7834 3.96558 20.8159 3.96558H30.818C30.8505 3.96558 30.8818 3.9786 30.9048 4.00177C30.9278 4.02495 30.9408 4.05638 30.9408 4.08915C30.9408 4.12193 30.9278 4.15336 30.9048 4.17653C30.8818 4.19971 30.8505 4.21273 30.818 4.21273Z" fill="#3F3D56"/>
<path d="M7.88154 8.59593C8.75023 5.31529 10.3984 2.51356 13.0792 0.346198C13.1845 0.179324 13.3514 0.0613191 13.5432 0.0180771C13.7349 -0.0251648 13.9359 0.00988808 14.102 0.115544L20.295 4.06474C20.4609 4.17075 20.5782 4.33863 20.6212 4.53154C20.6642 4.72445 20.6293 4.92664 20.5243 5.09374L15.3267 13.3435C15.2213 13.5103 15.0544 13.6283 14.8627 13.6716C14.6709 13.7148 14.4699 13.6798 14.3038 13.5741L8.11081 9.62492C7.94496 9.51889 7.82768 9.35102 7.7847 9.15811C7.74171 8.96521 7.77654 8.76303 7.88154 8.59593Z" fill="#E6E6E6"/>
<path d="M9.92643 6.40712C10.1429 4.67587 11.5501 2.89603 13.2679 1.1035C13.3666 0.947214 13.5229 0.836704 13.7025 0.796217C13.8821 0.75573 14.0703 0.788573 14.2259 0.887539L19.5482 4.28135C19.7036 4.38064 19.8134 4.53787 19.8536 4.71854C19.8939 4.89922 19.8612 5.08857 19.7629 5.24506L15.1378 12.5862C15.0391 12.7424 14.8828 12.8529 14.7032 12.8934C14.5236 12.9339 14.3354 12.9011 14.1798 12.8021L10.8827 10.6998C10.1908 10.2575 9.7015 9.55716 9.52222 8.75243C9.34293 7.9477 9.48826 7.10429 9.92633 6.40722L9.92643 6.40712Z" fill="white"/>
<path d="M16.3616 8.03444L12.2042 5.40007C12.1715 5.37931 12.1431 5.35227 12.1207 5.32048C12.0983 5.28869 12.0824 5.25278 12.0738 5.2148C12.0653 5.17682 12.0642 5.13751 12.0707 5.09912C12.0773 5.06073 12.0913 5.02401 12.1119 4.99105C12.1325 4.9581 12.1594 4.92955 12.191 4.90705C12.2226 4.88455 12.2583 4.86853 12.2961 4.8599C12.3338 4.85128 12.3729 4.85022 12.411 4.85678C12.4492 4.86335 12.4857 4.87741 12.5185 4.89817L16.6759 7.53284C16.7086 7.5536 16.737 7.58064 16.7594 7.61243C16.7817 7.64422 16.7977 7.68013 16.8062 7.71811C16.8148 7.75609 16.8159 7.7954 16.8093 7.83379C16.8028 7.87218 16.7888 7.9089 16.7682 7.94186C16.7476 7.97481 16.7207 8.00336 16.6891 8.02586C16.6575 8.04836 16.6218 8.06438 16.584 8.07301C16.5463 8.08163 16.5072 8.08269 16.469 8.07612C16.4309 8.06956 16.3944 8.0555 16.3616 8.03474V8.03444Z" fill="#8480C3"/>
<path d="M13.9806 4.603L13.0663 4.02312C13.0001 3.9812 12.9532 3.91455 12.9359 3.83785C12.9186 3.76114 12.9323 3.68066 12.974 3.6141C13.0156 3.54755 13.0819 3.50037 13.1581 3.48295C13.2344 3.46553 13.3144 3.4793 13.3805 3.52122L14.2948 4.1011C14.361 4.14303 14.4079 4.20967 14.4252 4.28637C14.4425 4.36308 14.4288 4.44356 14.3871 4.51012C14.3455 4.57668 14.2792 4.62385 14.203 4.64127C14.1267 4.65869 14.0467 4.64492 13.9806 4.603Z" fill="#8480C3"/>
<path d="M14.8034 10.1048L10.6461 7.47014C10.58 7.42822 10.5331 7.36157 10.5157 7.28487C10.4984 7.20816 10.5121 7.12768 10.5538 7.06112C10.5955 6.99457 10.6617 6.94739 10.7379 6.92997C10.8142 6.91255 10.8942 6.92632 10.9604 6.96824L15.1178 9.60291C15.1505 9.62367 15.1789 9.65071 15.2013 9.6825C15.2236 9.71429 15.2396 9.7502 15.2481 9.78818C15.2567 9.82616 15.2578 9.86547 15.2512 9.90386C15.2447 9.94225 15.2307 9.97897 15.2101 10.0119C15.1895 10.0449 15.1626 10.0734 15.131 10.0959C15.0994 10.1184 15.0637 10.1345 15.0259 10.1431C14.9882 10.1517 14.9491 10.1528 14.9109 10.1462C14.8728 10.1396 14.8363 10.1256 14.8035 10.1048H14.8034Z" fill="#8480C3"/>
<path d="M15.4943 9.00153L11.3369 6.36687C11.2707 6.32495 11.2239 6.2583 11.2065 6.1816C11.1892 6.10489 11.2029 6.02441 11.2446 5.95785C11.2863 5.89129 11.3525 5.84412 11.4287 5.8267C11.505 5.80928 11.585 5.82305 11.6511 5.86497L15.8086 8.49964C15.8747 8.54156 15.9216 8.6082 15.9389 8.68491C15.9562 8.76161 15.9426 8.8421 15.9009 8.90865C15.8592 8.97521 15.793 9.02239 15.7167 9.0398C15.6405 9.05722 15.5605 9.04346 15.4943 9.00153Z" fill="#8480C3"/>
<path d="M20.1218 5.81944C20.8001 5.81944 21.3501 5.26622 21.3501 4.58379C21.3501 3.90136 20.8001 3.34814 20.1218 3.34814C19.4435 3.34814 18.8936 3.90136 18.8936 4.58379C18.8936 5.26622 19.4435 5.81944 20.1218 5.81944Z" fill="#8480C3"/>
<path d="M41.9183 17.0898C41.9184 17.4224 41.8888 17.7543 41.8299 18.0816C41.7234 18.4999 41.5622 18.9022 41.3504 19.2777C40.9447 20.0026 40.5098 20.2732 40.1523 20.983C40.0908 21.0308 40.0276 21.0738 39.9635 21.116C39.8351 21.1994 39.821 21.6076 39.6846 21.6779C39.6837 21.6788 39.6828 21.6788 39.6819 21.6798C39.6398 21.7516 39.6155 21.8326 39.6111 21.9158V21.9177C39.5422 22.3232 39.4827 23.1482 39.4137 23.6361C39.4045 23.6952 39.3959 23.7494 39.3867 23.7971C39.3633 23.9263 39.3393 24.0088 39.3123 24.019C38.9799 24.1482 38.8384 23.9712 38.4745 24.019C38.279 24.0453 37.2811 24.2064 37.0782 24.2064C36.5018 24.2064 36.1902 24.0088 35.7239 23.7971C35.6913 23.7831 35.6587 23.768 35.6245 23.7531C35.6118 23.7484 35.6014 23.7431 35.5891 23.7382C35.4552 23.6812 35.3286 22.2408 35.203 21.6959C35.2026 21.6955 35.2023 21.695 35.2022 21.6946C35.202 21.6941 35.202 21.6936 35.2021 21.6931C35.1759 21.5797 35.15 21.5057 35.1238 21.4908L35.104 21.4796C35.0211 21.4318 34.9402 21.3796 34.861 21.325C34.3814 20.5214 33.4553 19.7569 32.9981 18.5071C32.867 18.0461 32.799 17.5693 32.7961 17.0898C32.7961 16.4872 32.9141 15.8905 33.1433 15.3338C33.3726 14.7771 33.7085 14.2713 34.1321 13.8452C34.5556 13.4191 35.0584 13.0811 35.6118 12.8505C36.1652 12.6199 36.7583 12.5012 37.3572 12.5012C37.9562 12.5012 38.5493 12.6199 39.1027 12.8505C39.6561 13.0811 40.1589 13.4191 40.5824 13.8452C41.006 14.2713 41.3419 14.7771 41.5711 15.3338C41.8004 15.8905 41.9183 16.4872 41.9183 17.0898Z" fill="#E6E6E6"/>
<path d="M41.83 18.0819C41.7235 18.5001 41.5623 18.9022 41.3506 19.2777C40.9449 20.0025 40.51 20.2732 40.1525 20.9829C39.9148 21.4558 39.7121 22.1235 39.5736 23.2495C39.5653 23.3159 39.5829 23.3917 39.5736 23.4573C39.5522 23.6025 39.5783 23.5763 39.4907 23.7073C39.451 23.7297 39.4264 23.698 39.4135 23.6361C39.3929 23.4802 39.391 23.3225 39.408 23.1662C39.433 22.7442 39.501 22.3259 39.6108 21.9178V21.9159C39.6331 21.8344 39.6573 21.756 39.6816 21.68C40.1126 20.3595 40.9074 19.7613 41.2677 19.0705C43.1598 15.4476 39.6628 11.404 35.8111 12.8105C35.6044 12.8863 35.6156 12.9304 35.6044 12.9359C35.3149 13.0623 35.0795 13.1177 34.7984 13.3096C33.0911 14.4784 32.4782 16.7905 33.2484 18.6952C33.6658 19.7262 34.5386 20.3077 35.1036 21.4793C35.1374 21.5473 35.1699 21.6184 35.2013 21.6928C35.2012 21.6933 35.2012 21.6938 35.2014 21.6943C35.2015 21.6948 35.2018 21.6952 35.2021 21.6956C35.4677 22.3493 35.6107 23.0469 35.6239 23.7529C35.6248 23.7657 35.6258 23.7773 35.6258 23.7894C35.6593 23.7922 35.6919 23.7941 35.7235 23.7969C36.2178 23.84 36.5384 23.9196 36.7037 23.8334L36.8861 23.8522C36.9465 23.9374 37.9636 23.8334 38.1259 23.8315H38.1678C38.5742 23.842 38.981 23.8304 39.3862 23.7968C39.4068 23.7949 39.428 23.7921 39.4486 23.7893C39.4757 23.7957 39.4994 23.8122 39.5148 23.8356C39.5302 23.8589 39.5361 23.8872 39.5315 23.9148C39.5442 24.0328 39.3499 24.3747 39.2839 24.413C39.0931 24.5254 35.9845 24.583 35.6872 24.3718C35.6007 24.3109 35.5372 24.2222 35.5073 24.1203C35.4774 24.0183 35.4827 23.9092 35.5225 23.8107C35.5169 23.7844 35.4024 23.7097 35.3977 23.6853C35.342 23.3664 35.4077 22.5587 35.0263 21.6476C34.9791 21.5359 34.9237 21.428 34.8607 21.3245C34.3814 20.521 33.4552 19.7568 32.9981 18.5061C32.7583 17.8348 32.6744 17.1173 32.7527 16.4083C32.9175 14.6479 34.427 12.9154 36.121 12.4781C39.6664 11.5623 42.6601 14.7969 41.83 18.0819Z" fill="#312631"/>
<path d="M39.3289 24.5103C39.6238 24.7926 39.4663 24.8881 39.3289 25.2172C39.1555 25.1779 36.1873 25.3689 35.7739 25.2172C35.7078 25.1903 35.6496 25.1468 35.6047 25.0911C35.5599 25.0353 35.5298 24.969 35.5174 24.8983C35.505 24.8276 35.5106 24.755 35.5338 24.6871C35.5569 24.6192 35.5968 24.5584 35.6497 24.5103C36.8723 24.6476 38.1063 24.6476 39.3289 24.5103Z" fill="#312631"/>
<path d="M39.4939 25.342C39.61 25.6019 39.3878 25.7612 39.2872 25.9658L39.0807 26.0074L35.8149 25.9657C35.6177 25.9277 35.4933 25.6507 35.4423 25.4667C35.4389 25.442 35.4431 25.4168 35.4542 25.3945C35.4654 25.3722 35.483 25.3539 35.5048 25.342L35.7735 25.2588C36.8528 25.3467 37.9362 25.3744 39.0186 25.342C39.0907 25.2997 39.1727 25.2774 39.2562 25.2774C39.3397 25.2774 39.4217 25.2997 39.4939 25.342Z" fill="#312631"/>
<path d="M36.8145 21.9585H36.7289V20.5502L35.1505 17.1878L35.2279 17.1509L36.8145 20.5302V21.9585Z" fill="#353546"/>
<path d="M37.3333 10.0407C37.5083 9.92074 37.5112 11.3258 37.4577 11.3714C37.2531 11.5443 37.2747 10.0808 37.3333 10.0407Z" fill="#312631"/>
<path d="M35.9279 10.1654C36.0653 10.0761 36.3824 11.4065 36.3619 11.4752C36.245 11.8672 35.8631 10.2073 35.9279 10.1654Z" fill="#312631"/>
<path d="M38.7387 10.1654C38.9026 10.1222 38.6268 11.4151 38.5941 11.4751C38.2842 12.0427 38.6498 10.189 38.7387 10.1654Z" fill="#312631"/>
<path d="M38.1486 21.9606L38.0784 20.3956L38.0799 20.3896L38.9176 16.9248L39.0009 16.9448L38.1645 20.4041L38.2341 21.9569L38.1486 21.9606Z" fill="#353546"/>
</g>
<defs>
<clipPath id="clip0_18_1850">
<rect width="75" height="80" fill="white"/>
</clipPath>
</defs>
</svg>
