<svg width="16" height="16" viewBox="0 0 16 16" fill="none" xmlns="http://www.w3.org/2000/svg">
<path d="M6 3C5.45333 3 5 3.45333 5 4C5 4.54667 5.45333 5 6 5C6.54667 5 7 4.54667 7 4C7 3.45333 6.54667 3 6 3ZM10 3C9.45333 3 9 3.45333 9 4C9 4.54667 9.45333 5 10 5C10.5467 5 11 4.54667 11 4C11 3.45333 10.5467 3 10 3ZM6 7C5.45333 7 5 7.45333 5 8C5 8.54667 5.45333 9 6 9C6.54667 9 7 8.54667 7 8C7 7.45333 6.54667 7 6 7ZM10 7C9.45333 7 9 7.45333 9 8C9 8.54667 9.45333 9 10 9C10.5467 9 11 8.54667 11 8C11 7.45333 10.5467 7 10 7ZM6 11C5.45333 11 5 11.4533 5 12C5 12.5467 5.45333 13 6 13C6.54667 13 7 12.5467 7 12C7 11.4533 6.54667 11 6 11ZM10 11C9.45333 11 9 11.4533 9 12C9 12.5467 9.45333 13 10 13C10.5467 13 11 12.5467 11 12C11 11.4533 10.5467 11 10 11Z" fill="#C8C8C9"/>
</svg>
