<svg width="76" height="80" viewBox="0 0 76 80" fill="none" xmlns="http://www.w3.org/2000/svg">
<g clip-path="url(#clip0_18_1851)">
<path d="M21.4692 8.99634H0.599811C0.268545 8.99634 0 9.2651 0 9.59663V20.6764C0 21.008 0.268545 21.2767 0.599811 21.2767H21.4692C21.8005 21.2767 22.0691 21.008 22.0691 20.6764V9.59663C22.0691 9.2651 21.8005 8.99634 21.4692 8.99634Z" fill="#E6E6E6"/>
<path d="M21.3097 9.42358H0.781954C0.56111 9.42358 0.38208 9.60276 0.38208 9.82378V20.4716C0.38208 20.6926 0.56111 20.8718 0.781954 20.8718H21.3097C21.5305 20.8718 21.7096 20.6926 21.7096 20.4716V9.82378C21.7096 9.60276 21.5305 9.42358 21.3097 9.42358Z" fill="white"/>
<path d="M2.65652 13.9606C2.64469 13.9457 2.63643 13.9282 2.63238 13.9095C2.62832 13.8909 2.62858 13.8715 2.63312 13.853C2.74134 13.3993 2.74134 12.9266 2.63312 12.4729C2.62859 12.4544 2.62836 12.435 2.63243 12.4164C2.6365 12.3977 2.64477 12.3803 2.65661 12.3653C2.6682 12.3506 2.68296 12.3387 2.6998 12.3306C2.71663 12.3225 2.73509 12.3183 2.75378 12.3184H3.91072C3.94029 12.3184 3.96888 12.329 3.9914 12.3482C4.01392 12.3673 4.0289 12.3939 4.03368 12.4231C4.10919 12.9138 4.10919 13.4131 4.03368 13.9038C4.0289 13.933 4.01392 13.9596 3.9914 13.9788C3.96888 13.9979 3.94029 14.0085 3.91072 14.0086H2.75368C2.73491 14.0085 2.7164 14.0042 2.69956 13.9959C2.68272 13.9876 2.668 13.9755 2.65652 13.9606Z" fill="#8480C3"/>
<path d="M3.68755 12.9414H3.07774C3.05503 12.9414 3.03325 12.9324 3.01719 12.9163C3.00113 12.9002 2.99209 12.8784 2.99207 12.8557V12.8194C2.99209 12.7967 3.00113 12.7749 3.01719 12.7588C3.03325 12.7427 3.05503 12.7337 3.07774 12.7336H3.68755C3.71026 12.7337 3.73204 12.7427 3.7481 12.7588C3.76416 12.7749 3.7732 12.7967 3.77322 12.8194V12.8558C3.77317 12.8785 3.76412 12.9003 3.74807 12.9163C3.73201 12.9324 3.71025 12.9414 3.68755 12.9414Z" fill="white"/>
<path d="M3.68755 13.3001H3.07774C3.05503 13.3001 3.03325 13.291 3.01719 13.2749C3.00113 13.2589 2.99209 13.2371 2.99207 13.2143V13.178C2.99209 13.1553 3.00113 13.1335 3.01719 13.1174C3.03325 13.1014 3.05503 13.0923 3.07774 13.0923H3.68755C3.71026 13.0923 3.73204 13.1014 3.7481 13.1174C3.76416 13.1335 3.7732 13.1553 3.77322 13.178V13.2144C3.77317 13.2372 3.76412 13.2589 3.74807 13.275C3.73201 13.291 3.71025 13.3001 3.68755 13.3001Z" fill="white"/>
<path d="M20.397 10.7737H1.66209C1.65387 10.7737 1.64599 10.7704 1.64018 10.7646C1.63437 10.7588 1.6311 10.7509 1.6311 10.7427C1.6311 10.7345 1.63437 10.7266 1.64018 10.7208C1.64599 10.7149 1.65387 10.7117 1.66209 10.7117H20.397C20.4052 10.7117 20.4131 10.7149 20.4189 10.7208C20.4247 10.7266 20.428 10.7345 20.428 10.7427C20.428 10.7509 20.4247 10.7588 20.4189 10.7646C20.4131 10.7704 20.4052 10.7737 20.397 10.7737Z" fill="#3F3D56"/>
<path d="M6.9575 19.9355C6.94928 19.9355 6.9414 19.9322 6.93559 19.9264C6.92977 19.9206 6.92651 19.9127 6.92651 19.9045V9.70826C6.92651 9.70004 6.92977 9.69215 6.93559 9.68633C6.9414 9.68051 6.94928 9.67725 6.9575 9.67725C6.96572 9.67725 6.9736 9.68051 6.97941 9.68633C6.98523 9.69215 6.98849 9.70004 6.98849 9.70826V19.9045C6.98849 19.9127 6.98523 19.9206 6.97941 19.9264C6.9736 19.9322 6.96572 19.9355 6.9575 19.9355Z" fill="#3F3D56"/>
<path d="M11.6335 19.9355C11.6253 19.9355 11.6174 19.9322 11.6116 19.9264C11.6058 19.9206 11.6025 19.9127 11.6025 19.9045V9.70826C11.6025 9.70004 11.6058 9.69215 11.6116 9.68633C11.6174 9.68051 11.6253 9.67725 11.6335 9.67725C11.6417 9.67725 11.6496 9.68051 11.6554 9.68633C11.6613 9.69215 11.6645 9.70004 11.6645 9.70826V19.9045C11.6645 19.9127 11.6613 19.9206 11.6554 19.9264C11.6496 19.9322 11.6417 19.9355 11.6335 19.9355Z" fill="#3F3D56"/>
<path d="M16.3093 19.9355C16.3011 19.9355 16.2932 19.9322 16.2874 19.9264C16.2816 19.9206 16.2783 19.9127 16.2783 19.9045V9.70826C16.2783 9.70004 16.2816 9.69215 16.2874 9.68633C16.2932 9.68051 16.3011 9.67725 16.3093 9.67725C16.3175 9.67725 16.3254 9.68051 16.3312 9.68633C16.337 9.69215 16.3403 9.70004 16.3403 9.70826V19.9045C16.3403 19.9127 16.337 19.9206 16.3312 19.9264C16.3254 19.9322 16.3175 19.9355 16.3093 19.9355Z" fill="#3F3D56"/>
<path d="M15.5947 15.584H14.4632C14.4263 15.5839 14.3909 15.5691 14.3648 15.543C14.3387 15.5169 14.324 15.4815 14.3239 15.4446V14.1082C14.324 14.0713 14.3387 14.0359 14.3648 14.0098C14.3909 13.9837 14.4263 13.9689 14.4632 13.9688H15.5947C15.6316 13.9689 15.6669 13.9837 15.693 14.0098C15.7191 14.0359 15.7339 14.0713 15.734 14.1082V15.4446C15.7339 15.4815 15.7191 15.5169 15.693 15.543C15.6669 15.5691 15.6316 15.5839 15.5947 15.584Z" fill="#424057"/>
<path d="M13.3959 16.0799H12.2645C12.2276 16.0797 12.1922 16.065 12.1661 16.0389C12.14 16.0127 12.1253 15.9773 12.1251 15.9404V14.6041C12.1253 14.5671 12.14 14.5317 12.1661 14.5056C12.1922 14.4795 12.2276 14.4648 12.2645 14.4646H13.3959C13.4328 14.4648 13.4682 14.4795 13.4943 14.5056C13.5204 14.5317 13.5351 14.5671 13.5353 14.6041V15.9404C13.5351 15.9773 13.5204 16.0127 13.4943 16.0389C13.4682 16.065 13.4328 16.0797 13.3959 16.0799Z" fill="#E6E6E6"/>
<path d="M8.65813 18.1873H7.52669C7.48978 18.1871 7.45442 18.1724 7.42832 18.1463C7.40222 18.1202 7.38749 18.0848 7.38733 18.0478V16.7115C7.38749 16.6745 7.40222 16.6392 7.42832 16.613C7.45442 16.5869 7.48978 16.5722 7.52669 16.572H8.65813C8.69504 16.5722 8.7304 16.5869 8.7565 16.613C8.7826 16.6392 8.79733 16.6745 8.79749 16.7115V18.0478C8.79733 18.0848 8.7826 18.1202 8.7565 18.1463C8.7304 18.1724 8.69504 18.1871 8.65813 18.1873Z" fill="#E6E6E6"/>
<path d="M2.92912 16.4207H1.79768C1.76077 16.4205 1.72542 16.4058 1.69932 16.3797C1.67322 16.3536 1.65848 16.3182 1.65833 16.2812V14.9449C1.65848 14.9079 1.67322 14.8726 1.69932 14.8464C1.72542 14.8203 1.76077 14.8056 1.79768 14.8054H2.92912C2.96603 14.8056 3.00139 14.8203 3.02749 14.8464C3.05359 14.8726 3.06832 14.9079 3.06848 14.9449V16.2812C3.06832 16.3182 3.05359 16.3536 3.02749 16.3797C3.00139 16.4058 2.96603 16.4205 2.92912 16.4207Z" fill="#424057"/>
<path d="M6.1187 13.9725H4.98725C4.95034 13.9723 4.91499 13.9575 4.88889 13.9314C4.86279 13.9053 4.84806 13.8699 4.8479 13.833V12.4966C4.84806 12.4597 4.86279 12.4243 4.88889 12.3982C4.91499 12.3721 4.95034 12.3573 4.98725 12.3572H6.1187C6.15561 12.3573 6.19096 12.3721 6.21707 12.3982C6.24317 12.4243 6.2579 12.4597 6.25806 12.4966V13.833C6.2579 13.8699 6.24317 13.9053 6.21707 13.9314C6.19096 13.9575 6.15561 13.9723 6.1187 13.9725Z" fill="#E6E6E6"/>
<path d="M5.19237 10.2662H3.42733C3.39448 10.2662 3.36298 10.2532 3.33975 10.2299C3.31652 10.2067 3.30347 10.1751 3.30347 10.1423C3.30347 10.1094 3.31652 10.0779 3.33975 10.0546C3.36298 10.0314 3.39448 10.0183 3.42733 10.0183H5.19237C5.22522 10.0183 5.25673 10.0314 5.27996 10.0546C5.30319 10.0779 5.31623 10.1094 5.31623 10.1423C5.31623 10.1751 5.30319 10.2067 5.27996 10.2299C5.25673 10.2532 5.22522 10.2662 5.19237 10.2662Z" fill="#E6E6E6"/>
<path d="M10.178 10.2662H8.41292C8.38007 10.2662 8.34857 10.2532 8.32534 10.2299C8.30211 10.2067 8.28906 10.1751 8.28906 10.1423C8.28906 10.1094 8.30211 10.0779 8.32534 10.0546C8.34857 10.0314 8.38007 10.0183 8.41292 10.0183H10.178C10.2108 10.0183 10.2423 10.0314 10.2656 10.0546C10.2888 10.0779 10.3018 10.1094 10.3018 10.1423C10.3018 10.1751 10.2888 10.2067 10.2656 10.2299C10.2423 10.2532 10.2108 10.2662 10.178 10.2662Z" fill="#E6E6E6"/>
<path d="M14.854 10.2662H13.089C13.0561 10.2662 13.0246 10.2532 13.0014 10.2299C12.9781 10.2067 12.9651 10.1751 12.9651 10.1423C12.9651 10.1094 12.9781 10.0779 13.0014 10.0546C13.0246 10.0314 13.0561 10.0183 13.089 10.0183H14.854C14.8868 10.0183 14.9183 10.0314 14.9416 10.0546C14.9648 10.0779 14.9779 10.1094 14.9779 10.1423C14.9779 10.1751 14.9648 10.2067 14.9416 10.2299C14.9183 10.2532 14.8868 10.2662 14.854 10.2662Z" fill="#E6E6E6"/>
<path d="M19.2202 10.2662H17.4552C17.4223 10.2662 17.3908 10.2532 17.3676 10.2299C17.3444 10.2067 17.3313 10.1751 17.3313 10.1423C17.3313 10.1094 17.3444 10.0779 17.3676 10.0546C17.3908 10.0314 17.4223 10.0183 17.4552 10.0183H19.2202C19.2531 10.0183 19.2846 10.0314 19.3078 10.0546C19.331 10.0779 19.3441 10.1094 19.3441 10.1423C19.3441 10.1751 19.331 10.2067 19.3078 10.2299C19.2846 10.2532 19.2531 10.2662 19.2202 10.2662Z" fill="#E6E6E6"/>
<path d="M20.3324 13.6934H19.201C19.1641 13.6932 19.1287 13.6785 19.1026 13.6524C19.0765 13.6263 19.0618 13.5909 19.0616 13.5539V12.2176C19.0618 12.1806 19.0765 12.1453 19.1026 12.1191C19.1287 12.093 19.1641 12.0783 19.201 12.0781H20.3324C20.3694 12.0783 20.4047 12.093 20.4308 12.1191C20.4569 12.1453 20.4716 12.1806 20.4718 12.2176V13.5539C20.4716 13.5909 20.4569 13.6263 20.4308 13.6524C20.4047 13.6785 20.3694 13.6932 20.3324 13.6934Z" fill="#E6E6E6"/>
<path d="M19.4345 16.0799H18.3031C18.2661 16.0797 18.2308 16.065 18.2047 16.0389C18.1786 16.0127 18.1639 15.9773 18.1637 15.9404V14.6041C18.1639 14.5671 18.1786 14.5317 18.2047 14.5056C18.2308 14.4795 18.2661 14.4648 18.3031 14.4646H19.4345C19.4714 14.4648 19.5068 14.4795 19.5329 14.5056C19.559 14.5317 19.5737 14.5671 19.5739 14.6041V15.9404C19.5737 15.9773 19.559 16.0127 19.5329 16.0389C19.5068 16.065 19.4714 16.0797 19.4345 16.0799Z" fill="#E6E6E6"/>
<path d="M4.61269 17.8772C4.60087 17.8622 4.59261 17.8447 4.58856 17.826C4.5845 17.8074 4.58476 17.788 4.5893 17.7695C4.69752 17.3159 4.69752 16.8431 4.5893 16.3894C4.58477 16.3709 4.58453 16.3515 4.5886 16.3329C4.59268 16.3142 4.60095 16.2968 4.61279 16.2818C4.62437 16.2671 4.63914 16.2552 4.65597 16.2471C4.67281 16.239 4.69127 16.2348 4.70996 16.2349H5.86689C5.89647 16.2349 5.92506 16.2455 5.94758 16.2647C5.97009 16.2839 5.98508 16.3104 5.98986 16.3396C6.06537 16.8303 6.06537 17.3296 5.98986 17.8203C5.98508 17.8495 5.97009 17.8761 5.94758 17.8953C5.92506 17.9145 5.89647 17.925 5.86689 17.9251H4.70986C4.69109 17.925 4.67257 17.9207 4.65573 17.9124C4.63889 17.9041 4.62417 17.892 4.61269 17.8772Z" fill="#8480C3"/>
<path d="M5.64373 16.8579H5.03392C5.01121 16.8579 4.98943 16.8489 4.97337 16.8328C4.95731 16.8167 4.94827 16.7949 4.94824 16.7722V16.7359C4.94827 16.7132 4.95731 16.6914 4.97337 16.6753C4.98943 16.6592 5.01121 16.6502 5.03392 16.6501H5.64373C5.66644 16.6502 5.68822 16.6592 5.70428 16.6753C5.72034 16.6914 5.72937 16.7132 5.7294 16.7359V16.7723C5.72935 16.795 5.7203 16.8168 5.70424 16.8328C5.68818 16.8489 5.66642 16.8579 5.64373 16.8579Z" fill="white"/>
<path d="M5.64373 17.2166H5.03392C5.01121 17.2166 4.98943 17.2075 4.97337 17.1914C4.95731 17.1754 4.94827 17.1536 4.94824 17.1308V17.0945C4.94827 17.0718 4.95731 17.05 4.97337 17.0339C4.98943 17.0179 5.01121 17.0088 5.03392 17.0088H5.64373C5.66644 17.0088 5.68822 17.0179 5.70428 17.0339C5.72034 17.05 5.72937 17.0718 5.7294 17.0945V17.1309C5.72935 17.1537 5.7203 17.1754 5.70424 17.1915C5.68818 17.2075 5.66642 17.2166 5.64373 17.2166Z" fill="white"/>
<path d="M9.32241 14.7292C9.31058 14.7142 9.30233 14.6967 9.29827 14.6781C9.29422 14.6594 9.29447 14.6401 9.29902 14.6216C9.40724 14.1679 9.40724 13.6951 9.29902 13.2415C9.29449 13.2229 9.29425 13.2036 9.29832 13.1849C9.30239 13.1663 9.31066 13.1488 9.32251 13.1338C9.33409 13.1192 9.34885 13.1073 9.36569 13.0992C9.38252 13.091 9.40098 13.0869 9.41968 13.0869H10.5766C10.6062 13.087 10.6348 13.0975 10.6573 13.1167C10.6798 13.1359 10.6948 13.1625 10.6996 13.1917C10.7751 13.6823 10.7751 14.1817 10.6996 14.6724C10.6948 14.7016 10.6798 14.7281 10.6573 14.7473C10.6348 14.7665 10.6062 14.7771 10.5766 14.7771H9.41958C9.4008 14.7771 9.38229 14.7727 9.36545 14.7644C9.34861 14.7561 9.33389 14.7441 9.32241 14.7292Z" fill="#8480C3"/>
<path d="M10.3534 13.71H9.74364C9.72092 13.71 9.69915 13.7009 9.68309 13.6849C9.66702 13.6688 9.65799 13.647 9.65796 13.6243V13.5879C9.65799 13.5652 9.66702 13.5434 9.68309 13.5273C9.69915 13.5113 9.72092 13.5022 9.74364 13.5022H10.3534C10.3762 13.5022 10.3979 13.5113 10.414 13.5273C10.4301 13.5434 10.4391 13.5652 10.4391 13.5879V13.6244C10.4391 13.6471 10.43 13.6688 10.414 13.6849C10.3979 13.7009 10.3761 13.71 10.3534 13.71Z" fill="white"/>
<path d="M10.3534 14.0686H9.74364C9.72092 14.0686 9.69915 14.0596 9.68309 14.0435C9.66702 14.0274 9.65799 14.0056 9.65796 13.9829V13.9466C9.65799 13.9238 9.66702 13.9021 9.68309 13.886C9.69915 13.8699 9.72092 13.8609 9.74364 13.8608H10.3534C10.3762 13.8609 10.3979 13.8699 10.414 13.886C10.4301 13.9021 10.4391 13.9238 10.4391 13.9466V13.983C10.4391 14.0057 10.43 14.0275 10.414 14.0435C10.3979 14.0596 10.3761 14.0686 10.3534 14.0686Z" fill="white"/>
<path d="M12.5376 13.2746C12.5258 13.2596 12.5175 13.2421 12.5135 13.2235C12.5094 13.2048 12.5097 13.1855 12.5142 13.167C12.6224 12.7133 12.6224 12.2405 12.5142 11.7869C12.5097 11.7684 12.5095 11.749 12.5135 11.7304C12.5176 11.7117 12.5259 11.6942 12.5377 11.6792C12.5493 11.6646 12.5641 11.6527 12.5809 11.6446C12.5977 11.6365 12.6162 11.6323 12.6349 11.6323H13.7918C13.8214 11.6324 13.85 11.6429 13.8725 11.6621C13.895 11.6813 13.91 11.7079 13.9148 11.7371C13.9903 12.2278 13.9903 12.7271 13.9148 13.2178C13.91 13.247 13.895 13.2735 13.8725 13.2927C13.85 13.3119 13.8214 13.3225 13.7918 13.3225H12.6348C12.616 13.3225 12.5975 13.3181 12.5807 13.3098C12.5638 13.3015 12.5491 13.2895 12.5376 13.2746Z" fill="#8480C3"/>
<path d="M13.5687 12.2554H12.9588C12.9361 12.2554 12.9144 12.2463 12.8983 12.2303C12.8822 12.2142 12.8732 12.1924 12.8732 12.1697V12.1333C12.8732 12.1106 12.8822 12.0888 12.8983 12.0728C12.9144 12.0567 12.9361 12.0476 12.9588 12.0476H13.5687C13.5914 12.0476 13.6131 12.0567 13.6292 12.0728C13.6453 12.0888 13.6543 12.1106 13.6543 12.1333V12.1698C13.6543 12.1925 13.6452 12.2142 13.6292 12.2303C13.6131 12.2464 13.5913 12.2554 13.5687 12.2554Z" fill="white"/>
<path d="M13.5687 12.614H12.9588C12.9361 12.614 12.9144 12.605 12.8983 12.5889C12.8822 12.5728 12.8732 12.551 12.8732 12.5283V12.492C12.8732 12.4693 12.8822 12.4475 12.8983 12.4314C12.9144 12.4153 12.9361 12.4063 12.9588 12.4062H13.5687C13.5914 12.4063 13.6131 12.4153 13.6292 12.4314C13.6453 12.4475 13.6543 12.4693 13.6543 12.492V12.5284C13.6543 12.5511 13.6452 12.5729 13.6292 12.5889C13.6131 12.605 13.5913 12.614 13.5687 12.614Z" fill="white"/>
<path d="M17.0357 13.4685C17.0238 13.4535 17.0156 13.436 17.0115 13.4173C17.0075 13.3987 17.0077 13.3794 17.0123 13.3608C17.1205 12.9072 17.1205 12.4344 17.0123 11.9807C17.0077 11.9622 17.0075 11.9429 17.0116 11.9242C17.0156 11.9055 17.0239 11.8881 17.0358 11.8731C17.0473 11.8584 17.0621 11.8466 17.0789 11.8384C17.0958 11.8303 17.1142 11.8261 17.1329 11.8262H18.2899C18.3194 11.8262 18.348 11.8368 18.3705 11.856C18.3931 11.8752 18.4081 11.9017 18.4128 11.9309C18.4883 12.4216 18.4883 12.921 18.4128 13.4116C18.4081 13.4408 18.3931 13.4674 18.3705 13.4866C18.348 13.5058 18.3194 13.5163 18.2899 13.5164H17.1328C17.1141 13.5163 17.0955 13.512 17.0787 13.5037C17.0619 13.4954 17.0471 13.4833 17.0357 13.4685Z" fill="#8480C3"/>
<path d="M18.0667 12.4493H17.4569C17.4342 12.4492 17.4124 12.4402 17.3963 12.4241C17.3803 12.408 17.3712 12.3862 17.3712 12.3635V12.3272C17.3712 12.3045 17.3803 12.2827 17.3963 12.2666C17.4124 12.2505 17.4342 12.2415 17.4569 12.2415H18.0667C18.0894 12.2415 18.1112 12.2505 18.1273 12.2666C18.1433 12.2827 18.1523 12.3045 18.1524 12.3272V12.3636C18.1523 12.3863 18.1433 12.4081 18.1272 12.4241C18.1112 12.4402 18.0894 12.4492 18.0667 12.4493Z" fill="white"/>
<path d="M18.0667 12.8079H17.4569C17.4342 12.8079 17.4124 12.7988 17.3963 12.7828C17.3803 12.7667 17.3712 12.7449 17.3712 12.7222V12.6858C17.3712 12.6631 17.3803 12.6413 17.3963 12.6252C17.4124 12.6092 17.4342 12.6001 17.4569 12.6001H18.0667C18.0894 12.6001 18.1112 12.6092 18.1273 12.6252C18.1433 12.6413 18.1523 12.6631 18.1524 12.6858V12.7223C18.1523 12.745 18.1433 12.7667 18.1272 12.7828C18.1112 12.7988 18.0894 12.8079 18.0667 12.8079Z" fill="white"/>
<path d="M45.3059 41.57C45.3057 41.7373 45.3415 41.9026 45.4107 42.0548C45.48 42.207 45.5811 42.3425 45.7073 42.4521C45.8334 42.5618 45.9817 42.643 46.1419 42.6903C46.3022 42.7376 46.4708 42.7499 46.6362 42.7263C46.7888 43.0769 47.0404 43.3752 47.3601 43.5847C47.6797 43.7943 48.0535 43.9059 48.4356 43.9059C48.9562 43.9059 49.4554 43.6989 49.8235 43.3306C50.1915 42.9622 50.3983 42.4626 50.3983 41.9416V40.2397C50.3983 39.8017 50.0434 39.655 49.6058 39.655H47.2655C46.8278 39.655 46.4729 39.8016 46.4729 40.2397V40.4021C46.1635 40.4024 45.8669 40.5256 45.6481 40.7446C45.4293 40.9635 45.3063 41.2604 45.3059 41.57ZM45.6242 41.57C45.6245 41.3449 45.714 41.129 45.8731 40.9697C46.0322 40.8105 46.2479 40.7209 46.4729 40.7206V41.9412C46.4729 42.1013 46.4924 42.2608 46.531 42.4162C46.5117 42.4175 46.4925 42.4191 46.4729 42.4191C46.248 42.4188 46.0323 42.3293 45.8732 42.1701C45.7141 42.011 45.6246 41.7952 45.6242 41.57Z" fill="#8480C3"/>
<path d="M48.4312 40.1921C49.2367 40.1921 49.8897 40.0988 49.8897 39.9836C49.8897 39.8685 49.2367 39.7751 48.4312 39.7751C47.6257 39.7751 46.9728 39.8685 46.9728 39.9836C46.9728 40.0988 47.6257 40.1921 48.4312 40.1921Z" fill="#2F2E41"/>
<path d="M45.1987 74.8894H42.9857V77.8086H45.1987V74.8894Z" fill="#ED9DA0"/>
<path d="M43.3635 79.8233H48.0677C48.4721 79.8227 48.8713 79.7317 49.2361 79.5568L50.1032 79.1398C50.1987 79.0938 50.2779 79.0197 50.3303 78.9275C50.3826 78.8353 50.4056 78.7293 50.3962 78.6236C50.3867 78.518 50.3453 78.4177 50.2775 78.3363C50.2096 78.2548 50.1186 78.1959 50.0165 78.1676L48.227 77.6722L45.1666 76.0625L45.1643 76.0741C45.1071 76.3642 45.0184 76.8026 45.007 76.8292C44.6931 77.1893 44.3707 77.3548 44.0486 77.3222C43.4869 77.2652 43.1134 76.6161 43.1098 76.6095L43.107 76.6045L43.1013 76.6051C43.0443 76.6074 42.9885 76.6229 42.9383 76.6503C42.8882 76.6776 42.845 76.7162 42.8121 76.7629C42.684 76.9563 42.7621 77.2541 42.775 77.2991C42.6216 77.4492 42.5527 78.2886 42.5474 78.3563C42.3255 78.5917 42.2201 78.8179 42.234 79.0289C42.2459 79.1304 42.2791 79.2282 42.3315 79.3159C42.3838 79.4036 42.4541 79.4793 42.5377 79.5379C42.7723 79.7248 43.0637 79.8257 43.3635 79.824V79.8233Z" fill="#424057"/>
<path d="M27.5749 76.3611L29.6998 76.9797L30.5146 74.1767L28.3897 73.5581L27.5749 76.3611Z" fill="#ED9DA0"/>
<path d="M27.3759 78.4011L31.8927 79.7163C32.2813 79.8288 32.69 79.853 33.0891 79.7871L34.0383 79.6289C34.1428 79.6114 34.2395 79.5624 34.3154 79.4885C34.3914 79.4145 34.443 79.3192 34.4634 79.2151C34.4838 79.111 34.4719 79.0032 34.4295 78.906C34.387 78.8089 34.316 78.727 34.2258 78.6713L32.6463 77.6954L30.1565 75.2942L30.1511 75.3043C30.0156 75.5668 29.8073 75.9629 29.7894 75.9853C29.3876 76.2431 29.0317 76.3121 28.7316 76.1908C28.2081 75.9791 28.0309 75.2513 28.0291 75.244L28.0277 75.2384L28.0221 75.2374C27.9666 75.2237 27.9088 75.223 27.853 75.2352C27.7972 75.2475 27.745 75.2724 27.7004 75.3081C27.5232 75.4581 27.5153 75.7658 27.5151 75.8125C27.3258 75.9138 27.0253 76.7004 27.0014 76.764C26.7226 76.9279 26.5582 77.1157 26.5128 77.3221C26.496 77.4229 26.5007 77.5261 26.5265 77.6249C26.5523 77.7238 26.5988 77.816 26.6628 77.8956C26.8359 78.1406 27.0875 78.319 27.3759 78.4011Z" fill="#424057"/>
<path d="M34.692 22.429C34.6922 21.7635 34.8766 21.111 35.2249 20.5441C35.5731 19.9771 36.0715 19.5179 36.6648 19.2173C37.2581 18.9167 37.923 18.7866 38.5858 18.8413C39.2485 18.8961 39.8831 19.1336 40.4191 19.5274C40.9551 19.9213 41.3716 20.4562 41.6222 21.0726C41.8728 21.689 41.9479 22.3629 41.839 23.0194C41.7301 23.6759 41.4415 24.2894 41.0053 24.7917C40.5691 25.294 40.0023 25.6655 39.3678 25.8649L38.6724 30.465L35.1268 27.508C35.6103 26.8713 36.0062 26.1726 36.304 25.4306C35.8085 25.1026 35.402 24.6567 35.1208 24.1329C34.8396 23.6091 34.6926 23.0238 34.6928 22.4292L34.692 22.429Z" fill="#ED9DA0"/>
<path d="M33.2723 40.1999L32.753 32.9234C32.7079 32.2923 32.7876 31.6586 32.9875 31.0584L34.527 26.4377L39.0603 27.8949L40.9731 32.2745L42.0149 34.1861C42.2458 34.6097 42.3334 35.0968 42.2647 35.5745C42.1959 36.0522 41.9745 36.4948 41.6336 36.836L40.9731 37.4971L41.8937 40.8763L41.7968 40.8729L41.9268 40.8897C41.9268 40.8897 48.0818 59.4209 47.8609 75.1807H39.9605L39.4918 56.8864L38.1194 75.8908L27.7089 75.2905L33.2719 40.1999H33.2723Z" fill="#E6E6E6"/>
<path d="M33.537 27.1596C33.537 27.1596 33.705 28.4352 35.2615 28.477L38.4189 28.5615C38.4189 28.5615 35.7498 22.0607 36.8476 22.793C37.9455 23.5254 40.8717 20.4551 40.8717 20.4551L41.7353 22.0759C41.7353 22.0759 43.7979 21.3282 41.5119 19.4974C41.5119 19.4974 38.7839 17.3863 35.8876 18.6541C32.9913 19.922 33.537 27.1596 33.537 27.1596Z" fill="#424057"/>
<path d="M46.3055 41.6344C46.3472 40.822 45.5867 40.1227 44.606 40.0717C44.3504 40.0537 44.0938 40.0869 43.8511 40.1693C43.6084 40.2516 43.3845 40.3815 43.1925 40.5513L43.1702 40.5502L37.3566 39.9477L37.7927 34.1732C37.954 33.0562 37.6407 31.9306 36.5416 31.6775C36.2231 31.6042 35.8922 31.6039 35.5736 31.6766C35.255 31.7493 34.957 31.8932 34.7018 32.0975C34.4466 32.3018 34.2409 32.5611 34.1 32.8562C33.9591 33.1513 33.8867 33.4744 33.8882 33.8015L33.9215 41.075C33.9226 41.3207 33.9721 41.5638 34.0671 41.7904C34.1622 42.017 34.301 42.2226 34.4756 42.3955C34.6501 42.5683 34.857 42.705 35.0845 42.7978C35.3119 42.8905 35.5553 42.9374 35.8009 42.9358L43.0969 42.3902C43.2704 42.579 43.4797 42.7313 43.7126 42.8383C43.9456 42.9453 44.1974 43.0048 44.4536 43.0134C45.4344 43.0642 46.2635 42.4466 46.3054 41.6343L46.3055 41.6344Z" fill="#ED9DA0"/>
<path d="M38.3519 31.6241L38.002 38.2118L33.1362 37.8816L33.9968 31.03" fill="#E6E6E6"/>
<path d="M56.343 79.9594L20.5583 79.9994C20.5167 79.9994 20.4768 79.9828 20.4474 79.9534C20.418 79.924 20.4015 79.8841 20.4015 79.8425C20.4015 79.8008 20.418 79.7609 20.4474 79.7315C20.4768 79.7021 20.5167 79.6855 20.5583 79.6855L56.343 79.6455C56.3846 79.6455 56.4245 79.662 56.4539 79.6915C56.4833 79.7209 56.4998 79.7608 56.4998 79.8024C56.4998 79.8441 56.4833 79.884 56.4539 79.9134C56.4245 79.9428 56.3846 79.9594 56.343 79.9594Z" fill="#E6E6E6"/>
<path d="M67.2617 19.7172L58.3645 22.01C58.0627 22.0875 57.7426 22.0419 57.4743 21.8834C57.206 21.7248 57.0115 21.4663 56.9335 21.1644L54.243 10.7074C54.1657 10.4054 54.2112 10.0849 54.3696 9.81645C54.528 9.54796 54.7863 9.35331 55.088 9.27521L63.3654 7.14209L65.4838 8.09125L68.1067 18.2853C68.1839 18.5873 68.1384 18.9077 67.98 19.1761C67.8216 19.4445 67.5633 19.6391 67.2617 19.7172Z" fill="#E6E6E6"/>
<path d="M55.1729 9.60312C54.9581 9.65873 54.7741 9.79732 54.6613 9.9885C54.5485 10.1797 54.5161 10.4078 54.5711 10.6229L57.2618 21.0799C57.3174 21.2949 57.4558 21.479 57.6469 21.5919C57.8379 21.7048 58.0659 21.7372 58.2808 21.6821L67.178 19.3889C67.3928 19.3333 67.5767 19.1947 67.6895 19.0035C67.8023 18.8124 67.8348 18.5842 67.7797 18.3691L65.1973 8.33331L63.3354 7.49951L55.1729 9.60312Z" fill="white"/>
<path d="M65.4615 8.14551L64.0843 8.50038C64.0345 8.51326 63.9827 8.51618 63.9318 8.50899C63.8808 8.5018 63.8319 8.48463 63.7876 8.45848C63.7433 8.43232 63.7046 8.39768 63.6737 8.35655C63.6429 8.31541 63.6204 8.26858 63.6076 8.21875L63.3458 7.20096C63.3446 7.19646 63.3447 7.19171 63.3461 7.18727C63.3475 7.18283 63.3502 7.17888 63.3537 7.17589C63.3573 7.1729 63.3616 7.17099 63.3663 7.17038C63.3709 7.16977 63.3756 7.17048 63.3798 7.17244L65.4653 8.09939C65.47 8.10146 65.4738 8.10492 65.4764 8.10929C65.479 8.11366 65.4802 8.11873 65.4798 8.1238C65.4794 8.12887 65.4774 8.13368 65.4741 8.13757C65.4708 8.14146 65.4664 8.14424 65.4615 8.14551Z" fill="#E6E6E6"/>
<path d="M64.7371 17.0753L60.6865 18.1193C60.6362 18.1323 60.5829 18.1247 60.5382 18.0983C60.4935 18.0719 60.4611 18.0288 60.4482 17.9785C60.4353 17.9282 60.4428 17.8748 60.4692 17.8301C60.4956 17.7854 60.5386 17.753 60.5889 17.74L64.6391 16.696C64.6643 16.6888 64.6906 16.6868 64.7165 16.6899C64.7425 16.6931 64.7675 16.7014 64.7902 16.7144C64.8129 16.7274 64.8328 16.7448 64.8486 16.7656C64.8645 16.7864 64.876 16.8102 64.8825 16.8355C64.889 16.8609 64.8904 16.8873 64.8866 16.9131C64.8827 16.939 64.8737 16.9639 64.8602 16.9862C64.8466 17.0086 64.8286 17.028 64.8074 17.0433C64.7862 17.0586 64.7622 17.0695 64.7367 17.0753H64.7371Z" fill="#CCCCCC"/>
<path d="M65.6835 17.5139L60.8513 18.7593C60.801 18.7722 60.7477 18.7647 60.703 18.7383C60.6583 18.7119 60.6259 18.6688 60.613 18.6185C60.6001 18.5682 60.6076 18.5148 60.634 18.4701C60.6604 18.4253 60.7034 18.393 60.7537 18.38L65.586 17.1346C65.6109 17.1282 65.6368 17.1267 65.6622 17.1304C65.6877 17.134 65.7121 17.1425 65.7343 17.1556C65.7564 17.1687 65.7757 17.186 65.7912 17.2066C65.8066 17.2271 65.8178 17.2505 65.8243 17.2754C65.8307 17.3003 65.8321 17.3262 65.8285 17.3517C65.8249 17.3772 65.8163 17.4017 65.8032 17.4238C65.7902 17.446 65.7729 17.4653 65.7523 17.4808C65.7318 17.4962 65.7084 17.5075 65.6835 17.5139Z" fill="#CCCCCC"/>
<path d="M59.0333 19.3765C59.4152 19.3765 59.7248 19.0666 59.7248 18.6843C59.7248 18.3021 59.4152 17.9922 59.0333 17.9922C58.6513 17.9922 58.3417 18.3021 58.3417 18.6843C58.3417 19.0666 58.6513 19.3765 59.0333 19.3765Z" fill="#8480C3"/>
<path d="M64.3066 15.2638L58.9267 16.6497C58.7713 16.6896 58.6064 16.6661 58.4682 16.5844C58.33 16.5027 58.2299 16.3695 58.1897 16.214L57.0623 11.8309C57.0226 11.6754 57.0461 11.5104 57.1277 11.3722C57.2093 11.234 57.3424 11.1338 57.4977 11.0936L62.8773 9.70769C63.0328 9.66784 63.1977 9.69133 63.3359 9.77301C63.474 9.8547 63.5742 9.9879 63.6144 10.1434L64.7417 14.5264C64.7814 14.6819 64.7579 14.8468 64.6763 14.985C64.5948 15.1232 64.4618 15.2234 64.3066 15.2637V15.2638Z" fill="white"/>
<path d="M64.3066 15.2638L58.9267 16.6497C58.7713 16.6896 58.6064 16.6661 58.4682 16.5844C58.33 16.5027 58.2299 16.3695 58.1897 16.214L57.0623 11.8309C57.0226 11.6754 57.0461 11.5104 57.1277 11.3722C57.2093 11.234 57.3424 11.1338 57.4977 11.0936L62.8773 9.70769C63.0328 9.66784 63.1977 9.69133 63.3359 9.77301C63.474 9.8547 63.5742 9.9879 63.6144 10.1434L64.7417 14.5264C64.7814 14.6819 64.7579 14.8468 64.6763 14.985C64.5948 15.1232 64.4618 15.2234 64.3066 15.2637V15.2638ZM57.5155 11.1626C57.3784 11.1981 57.2609 11.2866 57.189 11.4086C57.117 11.5307 57.0963 11.6763 57.1315 11.8136L58.2589 16.1966C58.2943 16.3338 58.3828 16.4513 58.5047 16.5234C58.6267 16.5954 58.7722 16.6161 58.9094 16.5809L64.2887 15.1947C64.4258 15.1592 64.5432 15.0707 64.6152 14.9487C64.6871 14.8266 64.7078 14.681 64.6726 14.5437L63.5454 10.1607C63.5099 10.0235 63.4215 9.90599 63.2995 9.83395C63.1776 9.7619 63.0321 9.74122 62.8949 9.77642L57.5155 11.1626Z" fill="#E6E6E6"/>
<path d="M62.6042 11.1812L59.8892 11.8806C59.8655 11.8873 59.8402 11.8846 59.8183 11.8733C59.7964 11.8619 59.7796 11.8427 59.7714 11.8195C59.7675 11.8073 59.7662 11.7945 59.7674 11.7818C59.7687 11.7691 59.7725 11.7568 59.7787 11.7457C59.7849 11.7345 59.7933 11.7247 59.8034 11.7169C59.8134 11.7091 59.825 11.7035 59.8374 11.7003L62.6011 10.9883C62.7128 11.0449 62.6833 11.1607 62.6042 11.1811V11.1812Z" fill="#F2F2F2"/>
<path d="M62.7267 11.6578L60.0117 12.3573C59.988 12.3639 59.9626 12.3613 59.9407 12.3499C59.9188 12.3386 59.9021 12.3193 59.8938 12.296C59.89 12.2839 59.8886 12.2711 59.8899 12.2584C59.8911 12.2457 59.8949 12.2334 59.9011 12.2222C59.9073 12.211 59.9157 12.2013 59.9258 12.1935C59.9359 12.1857 59.9475 12.18 59.9598 12.1769L62.7236 11.4648C62.8352 11.5215 62.8058 11.6372 62.7267 11.6576V11.6578Z" fill="#F2F2F2"/>
<path d="M59.4945 12.7793L58.6659 12.9927C58.6388 12.9997 58.6101 12.9956 58.5861 12.9814C58.562 12.9672 58.5446 12.944 58.5376 12.9169L58.2859 11.9384C58.279 11.9113 58.283 11.8826 58.2972 11.8585C58.3115 11.8345 58.3346 11.817 58.3617 11.8101L59.1903 11.5966C59.2174 11.5896 59.2461 11.5937 59.2701 11.6079C59.2942 11.6222 59.3116 11.6453 59.3186 11.6724L59.5703 12.6509C59.5773 12.6779 59.5732 12.7067 59.559 12.7307C59.5448 12.7548 59.5216 12.7724 59.4945 12.7793Z" fill="#8480C3"/>
<path d="M62.97 12.6354L58.8264 13.7029C58.8027 13.7096 58.7773 13.707 58.7554 13.6956C58.7336 13.6843 58.7168 13.665 58.7085 13.6418C58.7047 13.6296 58.7033 13.6168 58.7046 13.6041C58.7058 13.5914 58.7096 13.5791 58.7158 13.568C58.722 13.5568 58.7304 13.547 58.7405 13.5392C58.7506 13.5314 58.7622 13.5258 58.7745 13.5226L62.9669 12.4426C63.0786 12.4993 63.0492 12.615 62.97 12.6354Z" fill="#F2F2F2"/>
<path d="M63.0926 13.1125L58.9489 14.18C58.9252 14.1866 58.8998 14.184 58.878 14.1727C58.8561 14.1613 58.8393 14.1421 58.8311 14.1189C58.8272 14.1067 58.8259 14.0939 58.8271 14.0812C58.8284 14.0685 58.8322 14.0562 58.8384 14.045C58.8446 14.0339 58.853 14.0241 58.863 14.0163C58.8731 14.0085 58.8847 14.0029 58.8971 13.9997L63.0897 12.9197C63.2014 12.9763 63.172 13.0921 63.0928 13.1125H63.0926Z" fill="#F2F2F2"/>
<path d="M63.2151 13.5888L59.0715 14.6563C59.0478 14.6629 59.0224 14.6603 59.0005 14.649C58.9786 14.6376 58.9619 14.6184 58.9536 14.5952C58.9498 14.583 58.9484 14.5702 58.9497 14.5575C58.9509 14.5448 58.9548 14.5325 58.9609 14.5214C58.9671 14.5102 58.9755 14.5004 58.9856 14.4926C58.9957 14.4848 59.0073 14.4792 59.0196 14.476L63.212 13.396C63.3237 13.4526 63.2939 13.5684 63.2151 13.5888Z" fill="#F2F2F2"/>
<path d="M63.3378 14.0655L59.1942 15.1334C59.1705 15.1401 59.1451 15.1374 59.1232 15.1261C59.1013 15.1147 59.0846 15.0955 59.0763 15.0723C59.0724 15.0601 59.0711 15.0473 59.0724 15.0346C59.0736 15.0219 59.0774 15.0096 59.0836 14.9985C59.0898 14.9873 59.0982 14.9775 59.1083 14.9697C59.1184 14.9619 59.1299 14.9563 59.1423 14.9531L63.3348 13.8728C63.4464 13.9293 63.4169 14.0451 63.3378 14.0655Z" fill="#F2F2F2"/>
<path d="M63.4604 14.5424L59.3168 15.6099C59.293 15.6166 59.2677 15.6139 59.2458 15.6026C59.2239 15.5913 59.2072 15.572 59.1989 15.5488C59.195 15.5366 59.1937 15.5238 59.1949 15.5111C59.1962 15.4984 59.2 15.4861 59.2062 15.4749C59.2124 15.4638 59.2207 15.454 59.2308 15.4462C59.2409 15.4384 59.2525 15.4328 59.2649 15.4296L63.4573 14.3496C63.5688 14.4058 63.5395 14.5224 63.4604 14.5424Z" fill="#F2F2F2"/>
<path d="M59.0843 18.9269C59.0693 18.9308 59.0533 18.9297 59.0389 18.9238H59.038L58.8496 18.8437C58.8325 18.8359 58.8191 18.8217 58.8124 18.8041C58.8056 18.7865 58.8059 18.767 58.8133 18.7497C58.8206 18.7324 58.8345 18.7186 58.8518 18.7113C58.8692 18.704 58.8887 18.7038 58.9062 18.7107L59.0283 18.7627L59.1882 18.386C59.1919 18.3773 59.1973 18.3694 59.2041 18.3627C59.2108 18.3561 59.2188 18.3508 59.2276 18.3473C59.2364 18.3437 59.2458 18.342 59.2553 18.342C59.2648 18.3421 59.2741 18.3441 59.2829 18.3478L59.282 18.3503L59.283 18.3478C59.3006 18.3553 59.3145 18.3695 59.3216 18.3873C59.3288 18.405 59.3286 18.4249 59.3212 18.4425L59.1329 18.885C59.1286 18.8952 59.1219 18.9042 59.1135 18.9114C59.1051 18.9187 59.0951 18.9238 59.0843 18.9266V18.9269Z" fill="white"/>
<path d="M72.3401 22.4679L63.3214 20.7132C63.0156 20.6533 62.746 20.4745 62.5717 20.216C62.3975 19.9575 62.3328 19.6403 62.392 19.3342L64.4503 8.73498C64.51 8.42898 64.6887 8.15922 64.947 7.98487C65.2053 7.81053 65.5221 7.74585 65.828 7.80502L74.2187 9.43757L75.7243 11.2054L73.7178 21.5378C73.658 21.8438 73.4794 22.1136 73.2211 22.288C72.9628 22.4624 72.646 22.5271 72.3401 22.4679Z" fill="#E6E6E6"/>
<path d="M65.7635 8.13738C65.5457 8.09523 65.32 8.14129 65.1361 8.26545C64.9521 8.3896 64.8249 8.58171 64.7824 8.79962L62.7241 19.3989C62.682 19.6169 62.728 19.8428 62.8521 20.0268C62.9762 20.2109 63.1682 20.3382 63.3859 20.3809L72.4047 22.1356C72.6225 22.1777 72.8481 22.1317 73.0321 22.0075C73.216 21.8834 73.3432 21.6913 73.3858 21.4734L75.3612 11.301L74.0378 9.74728L65.7635 8.13738Z" fill="white"/>
<path d="M72.4299 12.6322L68.3236 11.8333C68.2727 11.8234 68.2278 11.7937 68.1988 11.7507C68.1698 11.7077 68.1591 11.6549 68.169 11.6039C68.1789 11.553 68.2086 11.5081 68.2516 11.4791C68.2946 11.45 68.3473 11.4393 68.3982 11.4492L72.5045 12.2481C72.5554 12.258 72.6003 12.2877 72.6293 12.3307C72.6583 12.3738 72.669 12.4265 72.6591 12.4775C72.6492 12.5284 72.6195 12.5733 72.5765 12.6024C72.5335 12.6314 72.4808 12.6421 72.4299 12.6322Z" fill="#8480C3"/>
<path d="M73.0959 13.4352L68.1975 12.4823C68.1466 12.4724 68.1017 12.4426 68.0727 12.3996C68.0437 12.3566 68.033 12.3038 68.0429 12.2529C68.0528 12.2019 68.0825 12.157 68.1255 12.128C68.1685 12.099 68.2212 12.0882 68.2721 12.0981L73.1705 13.0511C73.2214 13.061 73.2663 13.0907 73.2953 13.1338C73.3243 13.1768 73.3351 13.2296 73.3252 13.2805C73.3153 13.3314 73.2856 13.3764 73.2426 13.4054C73.1996 13.4344 73.1468 13.4451 73.0959 13.4352Z" fill="#8480C3"/>
<path d="M71.9398 15.1558L67.8335 14.3569C67.7826 14.347 67.7299 14.3578 67.6869 14.3868C67.6439 14.4158 67.6142 14.4607 67.6043 14.5116C67.5944 14.5626 67.6051 14.6154 67.6341 14.6584C67.6631 14.7014 67.708 14.7311 67.7589 14.7411L71.8652 15.5399C71.9161 15.5498 71.9689 15.5391 72.0118 15.5101C72.0548 15.4811 72.0845 15.4361 72.0944 15.3852C72.1043 15.3343 72.0936 15.2815 72.0646 15.2384C72.0356 15.1954 71.9907 15.1657 71.9398 15.1558Z" fill="#CCCCCC"/>
<path d="M72.6059 15.9588L67.7076 15.0058C67.6567 14.9959 67.6039 15.0067 67.5609 15.0357C67.5179 15.0647 67.4882 15.1096 67.4783 15.1606C67.4684 15.2115 67.4792 15.2643 67.5082 15.3073C67.5372 15.3503 67.5821 15.3801 67.633 15.39L72.5313 16.3429C72.5822 16.3528 72.635 16.3421 72.678 16.3131C72.721 16.2841 72.7507 16.2392 72.7606 16.1882C72.7705 16.1373 72.7597 16.0845 72.7307 16.0415C72.7017 15.9985 72.6568 15.9687 72.6059 15.9588Z" fill="#CCCCCC"/>
<path d="M71.3004 18.4476L67.1941 17.6488C67.1432 17.6389 67.0983 17.6091 67.0693 17.5661C67.0403 17.5231 67.0296 17.4703 67.0395 17.4194C67.0494 17.3684 67.0791 17.3235 67.1221 17.2945C67.1651 17.2655 67.2178 17.2547 67.2687 17.2646L71.375 18.0635C71.4259 18.0734 71.4708 18.1031 71.4998 18.1462C71.5288 18.1892 71.5395 18.242 71.5296 18.2929C71.5197 18.3439 71.49 18.3888 71.447 18.4178C71.404 18.4468 71.3513 18.4575 71.3004 18.4476Z" fill="#CCCCCC"/>
<path d="M71.9664 19.2507L67.068 18.2977C67.0171 18.2878 66.9722 18.2581 66.9432 18.215C66.9142 18.172 66.9035 18.1192 66.9134 18.0683C66.9233 18.0173 66.953 17.9724 66.996 17.9434C67.039 17.9144 67.0917 17.9037 67.1426 17.9136L72.041 18.8665C72.0919 18.8764 72.1368 18.9062 72.1658 18.9492C72.1948 18.9922 72.2055 19.045 72.1956 19.0959C72.1857 19.1469 72.156 19.1918 72.113 19.2208C72.0701 19.2498 72.0173 19.2606 71.9664 19.2507Z" fill="#CCCCCC"/>
<path d="M66.4562 12.3126C66.8311 12.3856 67.1941 12.1406 67.267 11.7654C67.3399 11.3901 67.095 11.0268 66.72 10.9539C66.3451 10.8809 65.9821 11.1259 65.9092 11.5012C65.8363 11.8764 66.0812 12.2397 66.4562 12.3126Z" fill="#8480C3"/>
<path d="M66.4707 11.8795C66.4554 11.8765 66.4415 11.8687 66.4311 11.8571L66.4304 11.8564L66.2945 11.7033C66.2878 11.6962 66.2826 11.6879 66.2792 11.6788C66.2758 11.6697 66.2743 11.66 66.2747 11.6503C66.2751 11.6406 66.2774 11.6311 66.2816 11.6223C66.2858 11.6135 66.2917 11.6057 66.299 11.5993C66.3062 11.5928 66.3147 11.5879 66.3239 11.5848C66.3331 11.5817 66.3429 11.5805 66.3525 11.5813C66.3622 11.582 66.3716 11.5848 66.3803 11.5892C66.3889 11.5937 66.3965 11.5999 66.4027 11.6074L66.4907 11.7069L66.7964 11.4355C66.8035 11.4292 66.8118 11.4243 66.8208 11.4212C66.8298 11.418 66.8393 11.4167 66.8488 11.4173C66.8584 11.4179 66.8677 11.4204 66.8762 11.4246C66.8848 11.4288 66.8924 11.4346 66.8987 11.4418L66.8966 11.4435L66.899 11.4418C66.9117 11.4562 66.9182 11.475 66.917 11.4941C66.9159 11.5133 66.9072 11.5312 66.8928 11.5439L66.5324 11.8628C66.5241 11.8701 66.5142 11.8754 66.5035 11.8783C66.4927 11.8812 66.4815 11.8816 66.4706 11.8794L66.4707 11.8795Z" fill="white"/>
<path d="M66.7721 14.6866C66.7548 14.7758 66.7201 14.8608 66.67 14.9366C66.6199 15.0124 66.5554 15.0776 66.4801 15.1284C66.4048 15.1793 66.3202 15.2148 66.2312 15.233C66.1422 15.2511 66.0505 15.2515 65.9613 15.2342C65.9555 15.2332 65.9497 15.2318 65.944 15.2301C65.8112 15.2006 65.69 15.1326 65.5957 15.0345C65.5013 14.9365 65.4379 14.8128 65.4134 14.6789C65.3889 14.545 65.4044 14.4069 65.458 14.2818C65.5116 14.1566 65.6008 14.0501 65.7146 13.9755C65.8284 13.9009 65.9616 13.8615 66.0976 13.8623C66.2336 13.8631 66.3664 13.904 66.4793 13.9799C66.5922 14.0558 66.6803 14.1633 66.7324 14.289C66.7846 14.4147 66.7986 14.553 66.7726 14.6867L66.7721 14.6866Z" fill="#8480C3"/>
<path d="M65.3267 18.1281C65.7016 18.201 66.0646 17.956 66.1375 17.5808C66.2104 17.2056 65.9655 16.8423 65.5905 16.7693C65.2156 16.6963 64.8526 16.9414 64.7797 17.3166C64.7068 17.6918 64.9517 18.0551 65.3267 18.1281Z" fill="#8480C3"/>
<path d="M75.6808 11.244L74.2847 10.9724C74.1829 10.9526 74.0931 10.8931 74.0351 10.807C73.9771 10.721 73.9556 10.6154 73.9754 10.5135L74.1758 9.48166C74.1766 9.47707 74.1788 9.47281 74.1819 9.46938C74.1851 9.46595 74.1892 9.4635 74.1937 9.46231C74.1982 9.46112 74.2029 9.46125 74.2074 9.46267C74.2118 9.46409 74.2158 9.46675 74.2187 9.47034L75.7041 11.2039C75.7073 11.2078 75.7093 11.2125 75.7098 11.2176C75.7102 11.2226 75.7091 11.2277 75.7065 11.2321C75.704 11.2364 75.7002 11.2399 75.6956 11.242C75.691 11.2441 75.6858 11.2447 75.6808 11.2438L75.6808 11.244Z" fill="#E6E6E6"/>
<path d="M49.7985 0H29.2126C28.8813 0 28.6128 0.268758 28.6128 0.600288V11.5223C28.6128 11.8539 28.8813 12.1226 29.2126 12.1226H49.7985C50.1298 12.1226 50.3983 11.8539 50.3983 11.5223V0.600288C50.3983 0.268758 50.1298 0 49.7985 0Z" fill="#E6E6E6"/>
<path d="M49.6435 0.422119H29.3899C29.169 0.422119 28.99 0.601291 28.99 0.822311V11.3231C28.99 11.5441 29.169 11.7232 29.3899 11.7232H49.6435C49.8643 11.7232 50.0434 11.5441 50.0434 11.3231V0.822311C50.0434 0.601291 49.8643 0.422119 49.6435 0.422119Z" fill="white"/>
<path d="M47.1936 9.80826H31.8177C31.805 9.80826 31.7928 9.80319 31.7837 9.79417C31.7747 9.78514 31.7697 9.7729 31.7697 9.76014V2.3846C31.7697 2.37182 31.7747 2.35957 31.7838 2.35053C31.7928 2.3415 31.805 2.33643 31.8178 2.33643C31.8306 2.33643 31.8428 2.3415 31.8518 2.35053C31.8609 2.35957 31.8659 2.37182 31.8659 2.3846V9.71201H47.1936C47.2064 9.71201 47.2186 9.71709 47.2276 9.72612C47.2367 9.73516 47.2417 9.74741 47.2417 9.76019C47.2417 9.77296 47.2367 9.78522 47.2276 9.79425C47.2186 9.80329 47.2064 9.80836 47.1936 9.80836V9.80826Z" fill="#3F3D56"/>
<path d="M35.1028 9.2785H33.7043C33.6664 9.27844 33.6301 9.26336 33.6033 9.23656C33.5765 9.20976 33.5615 9.17343 33.5614 9.13553V7.2062C33.5615 7.1683 33.5765 7.13197 33.6033 7.10517C33.6301 7.07837 33.6664 7.06329 33.7043 7.06323H35.1027C35.1406 7.06326 35.1769 7.07833 35.2037 7.10514C35.2305 7.13194 35.2455 7.16829 35.2456 7.2062V9.13553C35.2455 9.17344 35.2305 9.20979 35.2037 9.23659C35.1769 9.2634 35.1407 9.27847 35.1028 9.2785Z" fill="#8480C3"/>
<path d="M37.6531 9.2786H36.2545C36.2167 9.27854 36.1804 9.26346 36.1536 9.23666C36.1268 9.20986 36.1117 9.17353 36.1117 9.13563V5.37612C36.1117 5.33822 36.1268 5.30189 36.1536 5.27509C36.1804 5.24829 36.2167 5.23321 36.2545 5.23315H37.653C37.6909 5.23318 37.7272 5.24825 37.754 5.27506C37.7808 5.30186 37.7958 5.33821 37.7959 5.37612V9.13543C37.7958 9.17334 37.7808 9.20969 37.754 9.23649C37.7272 9.2633 37.6909 9.27837 37.653 9.27839L37.6531 9.2786Z" fill="#8480C3"/>
<path d="M40.2034 9.2785H38.8048C38.767 9.27844 38.7307 9.26336 38.7039 9.23656C38.6771 9.20976 38.662 9.17343 38.662 9.13553V7.2062C38.662 7.1683 38.6771 7.13197 38.7039 7.10517C38.7307 7.07837 38.767 7.06329 38.8048 7.06323H40.2033C40.2412 7.06326 40.2775 7.07833 40.3043 7.10514C40.3311 7.13194 40.3461 7.16829 40.3462 7.2062V9.13553C40.3461 9.17344 40.3311 9.20979 40.3043 9.23659C40.2775 9.2634 40.2412 9.27847 40.2033 9.2785H40.2034Z" fill="#8480C3"/>
<path d="M42.7538 9.27846H41.3553C41.3183 9.27924 41.2824 9.26532 41.2557 9.23975C41.2289 9.21417 41.2133 9.17902 41.2124 9.142V4.64724C41.2133 4.61021 41.2289 4.57507 41.2557 4.54949C41.2824 4.52392 41.3183 4.50999 41.3553 4.51077H42.7537C42.7907 4.50999 42.8265 4.52392 42.8533 4.54949C42.8801 4.57507 42.8956 4.61021 42.8966 4.64724V9.1424C42.8956 9.17941 42.8801 9.21454 42.8533 9.24011C42.8266 9.26568 42.7908 9.27962 42.7538 9.27886V9.27846Z" fill="#8480C3"/>
<path d="M45.3039 9.27885H43.9053C43.8674 9.27882 43.8311 9.26375 43.8043 9.23695C43.7775 9.21014 43.7625 9.17379 43.7625 9.13588V3.35391C43.7625 3.316 43.7775 3.27965 43.8043 3.25284C43.8311 3.22604 43.8674 3.21096 43.9053 3.21094H45.3039C45.3417 3.21096 45.3781 3.22604 45.4048 3.25284C45.4316 3.27965 45.4467 3.316 45.4467 3.35391V9.13588C45.4467 9.17379 45.4316 9.21014 45.4048 9.23695C45.3781 9.26375 45.3417 9.27882 45.3039 9.27885Z" fill="#8480C3"/>
</g>
<defs>
<clipPath id="clip0_18_1851">
<rect width="76" height="80" fill="white"/>
</clipPath>
</defs>
</svg>
