<svg width="83" height="80" viewBox="0 0 83 80" fill="none" xmlns="http://www.w3.org/2000/svg">
<g clip-path="url(#clip0_18_1848)">
<path d="M44.3235 39.8489C47.4901 39.8489 50.0571 37.2872 50.0571 34.1272C50.0571 30.9672 47.4901 28.4055 44.3235 28.4055C41.1569 28.4055 38.5898 30.9672 38.5898 34.1272C38.5898 37.2872 41.1569 39.8489 44.3235 39.8489Z" fill="#8480C3"/>
<path d="M43.7553 36.3101C43.6263 36.3103 43.5007 36.2687 43.3975 36.1915L43.391 36.1868L42.0436 35.1573C41.9176 35.0609 41.8351 34.9185 41.8143 34.7614C41.7934 34.6044 41.836 34.4454 41.9325 34.3197C42.0291 34.1939 42.1718 34.1116 42.3292 34.0908C42.4866 34.07 42.6458 34.1125 42.7719 34.2088L43.6446 34.8766L45.7071 32.1924C45.8037 32.0667 45.9464 31.9844 46.1038 31.9636C46.2612 31.9429 46.4204 31.9854 46.5464 32.0818L46.5335 32.0992L46.5467 32.0821C46.6725 32.1786 46.7549 32.321 46.7757 32.478C46.7964 32.635 46.7539 32.7938 46.6575 32.9196L44.2316 36.0769C44.1754 36.1496 44.1033 36.2085 44.0207 36.2489C43.9381 36.2893 43.8473 36.3103 43.7553 36.3101Z" fill="white"/>
<path d="M6.06612 43.249L2.3854 55.8048C2.27079 56.1957 2.24454 56.6071 2.30853 57.0094C2.37252 57.4117 2.52516 57.7948 2.75544 58.1311C2.98573 58.4674 3.28792 58.7485 3.64023 58.9541C3.99254 59.1598 4.38619 59.2849 4.79279 59.3204L8.80919 59.6712L6.06612 43.249Z" fill="#F2F2F2"/>
<path opacity="0.1" d="M6.06612 43.249L2.3854 55.8048C2.27079 56.1957 2.24454 56.6071 2.30853 57.0094C2.37252 57.4117 2.52516 57.7948 2.75544 58.1311C2.98573 58.4674 3.28792 58.7485 3.64023 58.9541C3.99254 59.1598 4.38619 59.2849 4.79279 59.3204L8.80919 59.6712L6.06612 43.249Z" fill="#413636"/>
<path d="M39.4738 40.9324L34.5505 49.0578L32.2323 46.1273L36.7628 39.049C36.6018 38.2254 36.7967 37.2696 37.3727 36.4441C38.3805 34.9998 40.1684 34.5037 41.3663 35.3361C42.5642 36.1686 42.7182 38.014 41.7104 39.4583C41.1344 40.2837 40.3037 40.7977 39.4739 40.9329L39.4738 40.9324Z" fill="#FFB6B6"/>
<path d="M8.77961 60.6299L8.18814 62.6365L8.20817 64.6712C8.20817 64.6712 4.31951 69.3385 5.75211 79.4338L23.9726 79.206L21.8024 62.9612L8.77961 60.6299Z" fill="#424057"/>
<path d="M10.8301 32.8236C10.8302 31.8704 11.095 30.9359 11.5952 30.1238C12.0954 29.3117 12.8113 28.6539 13.6635 28.2233C14.5157 27.7927 15.4708 27.6063 16.4228 27.6847C17.3747 27.7631 18.2863 28.1033 19.0562 28.6675C19.8261 29.2317 20.4243 29.9977 20.7843 30.8807C21.1442 31.7636 21.2519 32.7288 21.0954 33.6691C20.9389 34.6095 20.5242 35.4881 19.8975 36.2075C19.2708 36.9268 18.4566 37.4588 17.5452 37.7442L16.7749 38.3637L18.1579 43.1942L16.5463 44.3319L11.454 40.0973C11.454 40.0973 12.554 38.6994 13.1441 37.1224C12.4323 36.6526 11.8484 36.0141 11.4446 35.2639C11.0408 34.5137 10.8296 33.6753 10.8301 32.8237V32.8236Z" fill="#FFB6B6"/>
<path d="M35.7382 40.6747C33.9142 40.647 30.5418 46.4891 30.5418 46.4891L27.7712 45.5115L22.0744 43.4987L17.708 41.7053L17.7272 41.837C17.71 41.7956 17.6913 41.7541 17.6708 41.7119C17.2117 40.768 15.8783 39.6574 12.0927 39.8776L10.3097 41.2818L10.0673 41.4742C9.30264 41.4333 8.5378 41.5522 7.82182 41.8233C7.01099 42.1486 6.20026 42.7553 5.81674 43.8897C5.61802 44.4747 5.61802 45.6844 5.73725 47.2212C6.16851 52.7857 8.17826 64.6152 8.17826 64.6152L20.8659 62.9391L21.8019 62.961C21.8019 62.961 21.9132 61.6859 22.0126 60.0161C22.0742 59.0364 22.1298 57.9244 22.1616 56.853C22.1835 56.0677 22.1894 55.3062 22.1755 54.636C22.1735 54.5946 22.1735 54.5532 22.1715 54.511C22.1338 53.2875 22.0106 52.4011 21.7461 52.3039C21.7461 52.3039 22.5668 52.2821 23.7512 52.2385C26.6128 52.1314 31.6007 51.8914 32.3119 51.5047C33.3174 50.9593 38.5898 43.6398 38.5898 43.6398C38.5898 43.6398 37.5644 40.7049 35.7382 40.675V40.6747Z" fill="#E6E6E6"/>
<path d="M21.3173 33.2041C20.927 31.2987 20.7397 30.3223 19.321 28.9743C18.9843 29.0218 19.41 30.7643 17.5538 33.1915C14.8559 36.7199 15.1246 33.4848 14.3266 34.5716C14.1535 34.8076 14.116 35.6589 14.173 35.9518C14.3979 37.1091 15.7295 35.979 14.3266 39.9385C14.118 40.2465 13.872 40.1716 13.5588 40.1685C13.5345 40.1685 13.6937 40.1374 13.0977 40.0151C12.8133 39.9565 12.4153 39.8873 11.938 39.8071C6.39429 38.8751 4.43673 31.8945 8.72126 28.2628C9.69667 27.4365 10.653 26.8103 11.4836 26.5201C13.9857 25.6462 19.6863 26.2143 20.7811 29.0504C21.2966 30.3704 21.4808 31.7962 21.3175 33.2034L21.3173 33.2041Z" fill="#25252F"/>
<path d="M9.89937 44.4097C12.0831 44.4097 13.8533 42.6432 13.8533 40.464C13.8533 38.2849 12.0831 36.5183 9.89937 36.5183C7.71567 36.5183 5.94543 38.2849 5.94543 40.464C5.94543 42.6432 7.71567 44.4097 9.89937 44.4097Z" fill="#25252F"/>
<path d="M31.3418 80.0002H0.134846C0.0543228 79.9859 -0.00523939 79.8241 -5.1043e-05 79.6377C-0.00523939 79.4532 0.054219 79.2911 0.134846 79.2769H31.3418C31.4128 79.297 31.4688 79.4269 31.4775 79.591C31.4888 79.7912 31.4285 79.9735 31.3418 80.0002Z" fill="#E6E6E6"/>
<path d="M71.2538 18.0333C71.9399 18.0333 72.4962 17.4783 72.4962 16.7935C72.4962 16.1088 71.9399 15.5537 71.2538 15.5537C70.5676 15.5537 70.0114 16.1088 70.0114 16.7935C70.0114 17.4783 70.5676 18.0333 71.2538 18.0333Z" fill="#8480C3"/>
<path d="M71.1307 17.2666C71.1027 17.2667 71.0755 17.2577 71.0532 17.241L71.0518 17.2399L70.7598 17.0169C70.7463 17.0065 70.7349 16.9936 70.7264 16.9789C70.7179 16.9642 70.7123 16.9479 70.7101 16.9311C70.7079 16.9142 70.709 16.8971 70.7134 16.8807C70.7178 16.8642 70.7254 16.8488 70.7357 16.8353C70.7461 16.8219 70.759 16.8105 70.7738 16.802C70.7885 16.7935 70.8048 16.788 70.8217 16.7857C70.8386 16.7835 70.8558 16.7846 70.8722 16.789C70.8887 16.7934 70.9041 16.801 70.9176 16.8113L71.1067 16.9563L71.5536 16.3747C71.564 16.3612 71.5769 16.3498 71.5917 16.3413C71.6064 16.3328 71.6227 16.3273 71.6396 16.3251C71.6565 16.3229 71.6737 16.324 71.6901 16.3284C71.7066 16.3328 71.722 16.3404 71.7355 16.3507C71.7628 16.3716 71.7808 16.4025 71.7853 16.4365C71.7898 16.4706 71.7805 16.505 71.7596 16.5323L71.2339 17.2164C71.2218 17.2322 71.2061 17.245 71.1882 17.2537C71.1703 17.2625 71.1506 17.267 71.1307 17.2669V17.2666Z" fill="white"/>
<path d="M71.2538 21.6576C71.9399 21.6576 72.4962 21.1025 72.4962 20.4178C72.4962 19.7331 71.9399 19.178 71.2538 19.178C70.5676 19.178 70.0114 19.7331 70.0114 20.4178C70.0114 21.1025 70.5676 21.6576 71.2538 21.6576Z" fill="#8480C3"/>
<path d="M71.1307 20.8907C71.1027 20.8907 71.0755 20.8817 71.0532 20.865L71.0518 20.8639L70.7598 20.6409C70.7463 20.6306 70.7349 20.6177 70.7264 20.6029C70.7179 20.5882 70.7123 20.572 70.7101 20.5551C70.7079 20.5383 70.709 20.5211 70.7134 20.5047C70.7178 20.4883 70.7254 20.4729 70.7357 20.4594C70.7461 20.4459 70.759 20.4345 70.7738 20.426C70.7885 20.4175 70.8048 20.412 70.8217 20.4098C70.8386 20.4075 70.8558 20.4086 70.8722 20.413C70.8887 20.4174 70.9041 20.425 70.9176 20.4353L71.1067 20.5803L71.5536 19.9987C71.564 19.9852 71.5769 19.9739 71.5917 19.9654C71.6064 19.9569 71.6227 19.9513 71.6396 19.9491C71.6565 19.9469 71.6737 19.948 71.6901 19.9524C71.7066 19.9568 71.722 19.9644 71.7355 19.9748C71.7628 19.9957 71.7807 20.0265 71.7852 20.0606C71.7897 20.0946 71.7805 20.129 71.7596 20.1563L71.2339 20.8404C71.2218 20.8562 71.2061 20.869 71.1882 20.8778C71.1703 20.8865 71.1506 20.891 71.1307 20.891V20.8907Z" fill="white"/>
<path d="M71.9228 25.8537C72.609 25.8537 73.1652 25.2986 73.1652 24.6138C73.1652 23.9291 72.609 23.374 71.9228 23.374C71.2367 23.374 70.6804 23.9291 70.6804 24.6138C70.6804 25.2986 71.2367 25.8537 71.9228 25.8537Z" fill="#8480C3"/>
<path d="M71.7996 25.087C71.7717 25.087 71.7445 25.078 71.7221 25.0613L71.7208 25.0602L71.4288 24.8372C71.4152 24.8268 71.4039 24.8139 71.3954 24.7992C71.3868 24.7845 71.3813 24.7683 71.3791 24.7514C71.3768 24.7345 71.3779 24.7174 71.3823 24.701C71.3867 24.6846 71.3943 24.6692 71.4047 24.6557C71.4151 24.6422 71.428 24.6308 71.4427 24.6223C71.4575 24.6138 71.4738 24.6083 71.4907 24.6061C71.5075 24.6038 71.5247 24.6049 71.5412 24.6093C71.5576 24.6137 71.5731 24.6213 71.5866 24.6316L71.7757 24.7766L72.2226 24.195C72.2329 24.1815 72.2459 24.1702 72.2606 24.1616C72.2754 24.1531 72.2917 24.1476 72.3086 24.1454C72.3255 24.1432 72.3426 24.1443 72.3591 24.1487C72.3755 24.1531 72.391 24.1607 72.4045 24.171C72.4317 24.192 72.4496 24.2228 72.4541 24.2569C72.4586 24.2909 72.4494 24.3253 72.4285 24.3526L71.9028 25.0367C71.8906 25.0525 71.875 25.0653 71.8571 25.074C71.8392 25.0828 71.8195 25.0873 71.7995 25.0873L71.7996 25.087Z" fill="white"/>
<path d="M80.7441 30.0386C80.7338 30.0386 80.7268 30.0386 80.7245 30.0386H80.7441V29.8523H80.7291C80.7586 29.8533 81.3607 29.8703 81.9155 29.1985C82.7422 28.1974 83.421 25.7192 81.9605 19.5978C79.9967 11.3668 81.6346 4.09518 82.4299 1.35087C82.4691 1.2151 82.4761 1.0721 82.4504 0.933161C82.4247 0.794226 82.3669 0.663164 82.2817 0.550326C82.1965 0.437489 82.0862 0.345967 81.9594 0.282994C81.8327 0.22002 81.693 0.187319 81.5515 0.187473H62.5849C62.4407 0.187661 62.2986 0.221778 62.1701 0.287053C62.0416 0.352328 61.9303 0.446921 61.8453 0.563156C61.5084 1.02562 61.0463 1.91419 60.7567 3.52078L60.5724 3.48775C60.868 1.84626 61.3454 0.93159 61.6939 0.453702C61.7963 0.313647 61.9303 0.199662 62.0852 0.121001C62.24 0.0423397 62.4112 0.00121966 62.5849 0.000977839H81.5515C81.7221 0.000718095 81.8905 0.040087 82.0433 0.115972C82.196 0.191856 82.329 0.302175 82.4317 0.4382C82.5344 0.574226 82.6039 0.732227 82.6348 0.899707C82.6658 1.06719 82.6572 1.23955 82.6099 1.40316C81.8187 4.13318 80.1892 11.3672 82.1429 19.5549C83.624 25.7623 82.9119 28.2946 82.0539 29.3253C81.4877 30.0042 80.8641 30.0386 80.7441 30.0386Z" fill="#E6E6E6"/>
<path d="M78.7203 33.5084C78.71 33.5084 78.703 33.5084 78.7007 33.5084H77.7891V33.322H78.7054C78.7351 33.3229 79.337 33.34 79.8918 32.6683C80.7185 31.6671 81.3973 29.189 79.9368 23.0675C77.973 14.8366 79.6109 7.56491 80.4062 4.8206C80.4454 4.68483 80.4524 4.54183 80.4267 4.40289C80.401 4.26396 80.3432 4.13289 80.258 4.02005C80.1728 3.90722 80.0625 3.8157 79.9357 3.75272C79.809 3.68975 79.6693 3.65705 79.5277 3.6572H60.5611C60.4169 3.65739 60.2748 3.69151 60.1463 3.75678C60.0178 3.82206 59.9065 3.91665 59.8215 4.03288C59.4846 4.49545 59.0225 5.38392 58.7329 6.99051L58.5486 6.95748C58.8442 5.31599 59.3216 4.40132 59.6701 3.92343C59.7725 3.78338 59.9065 3.66939 60.0614 3.59073C60.2162 3.51207 60.3874 3.47095 60.5611 3.4707H79.5276C79.6983 3.47044 79.8667 3.50982 80.0195 3.5857C80.1722 3.66159 80.3052 3.7719 80.4079 3.90793C80.5106 4.04396 80.5801 4.20196 80.611 4.36943C80.642 4.53691 80.6334 4.70928 80.5861 4.87289C79.7948 7.60291 78.1654 14.8369 80.1191 23.0247C81.6002 29.232 80.8881 31.7644 80.0301 32.795C79.4637 33.474 78.8404 33.5084 78.7203 33.5084Z" fill="#CCCCCC"/>
<path d="M77.3003 30.5154C74.9273 20.5713 76.9065 11.785 77.868 8.46991C77.9252 8.2712 77.9354 8.06194 77.8978 7.85862C77.8601 7.65531 77.7757 7.46351 77.651 7.29834C77.5264 7.13318 77.365 6.99917 77.1796 6.9069C76.9942 6.81462 76.7898 6.76659 76.5826 6.7666H53.5473C53.3364 6.76674 53.1286 6.81652 52.9406 6.91188C52.7526 7.00724 52.5898 7.14549 52.4654 7.31542C51.5356 8.59148 49.6061 12.823 51.7612 24.5314C52.9137 30.7952 52.8965 35.0659 52.52 37.8791C52.3088 39.4635 51.9829 40.5847 51.6876 41.341L51.6565 41.4212C51.5943 41.5742 51.5618 41.7377 51.5609 41.9028C51.5587 42.0893 51.5962 42.2741 51.6708 42.445C51.7454 42.616 51.8555 42.7692 51.9938 42.8946C52.084 42.9789 52.1861 43.0496 52.2968 43.1044C52.3887 43.1512 52.486 43.1867 52.5864 43.2102C52.6887 43.2352 52.7937 43.2476 52.899 43.2474H75.5782C75.5811 43.2474 75.5885 43.2484 75.602 43.2484C75.7473 43.2484 76.5048 43.2064 77.1923 42.3805C78.234 41.129 79.0989 38.0543 77.3003 30.5154ZM77.024 42.2276C76.3503 43.044 75.6193 43.023 75.5839 43.0221H52.8981C52.7164 43.022 52.5376 42.9776 52.3772 42.8926C52.2167 42.8077 52.0796 42.6848 51.9777 42.5348C51.8881 42.405 51.828 42.2574 51.8014 42.1021C51.7748 41.9467 51.7825 41.7875 51.8239 41.6354C51.8347 41.5912 51.8487 41.5479 51.8659 41.5057C52.2032 40.6407 52.4532 39.7442 52.6123 38.8296C53.1513 35.8971 53.2516 31.3718 51.9844 24.4909C49.8456 12.8693 51.7369 8.70166 52.6485 7.44942C52.752 7.30849 52.8872 7.19382 53.0432 7.11468C53.1993 7.03553 53.3718 6.99412 53.5469 6.99379H76.5825C76.7544 6.99368 76.9239 7.03343 77.0778 7.10991C77.2316 7.18638 77.3655 7.29749 77.4689 7.43446C77.5724 7.57144 77.6425 7.73052 77.6737 7.89917C77.705 8.06781 77.6965 8.2414 77.649 8.40623C76.6829 11.7393 74.6941 20.5715 77.0795 30.568C78.8533 38.0018 78.0285 41.0117 77.024 42.2276Z" fill="#3F3D56"/>
<path d="M66.3568 17.5949H54.4887C54.3684 17.5962 54.249 17.5737 54.1376 17.5286C54.0261 17.4836 53.9246 17.4169 53.8391 17.3325C53.7536 17.2481 53.6857 17.1476 53.6394 17.0368C53.5931 16.926 53.5692 16.8072 53.5692 16.6871C53.5692 16.5671 53.5931 16.4483 53.6394 16.3375C53.6857 16.2267 53.7536 16.1262 53.8391 16.0418C53.9246 15.9574 54.0261 15.8907 54.1376 15.8456C54.249 15.8006 54.3684 15.7781 54.4887 15.7793H66.3568C66.5964 15.7819 66.8253 15.8787 66.9938 16.0486C67.1623 16.2186 67.2568 16.448 67.2568 16.6871C67.2568 16.9262 67.1623 17.1557 66.9938 17.3256C66.8253 17.4956 66.5964 17.5924 66.3568 17.5949Z" fill="#E6E6E6"/>
<path d="M66.3569 21.5048H54.4888C54.2492 21.5023 54.0203 21.4055 53.8518 21.2355C53.6833 21.0656 53.5887 20.8361 53.5887 20.597C53.5887 20.3579 53.6833 20.1285 53.8518 19.9585C54.0203 19.7886 54.2492 19.6918 54.4888 19.6893H66.3569C66.4772 19.688 66.5965 19.7105 66.708 19.7556C66.8195 19.8006 66.9209 19.8673 67.0064 19.9517C67.0919 20.0361 67.1598 20.1366 67.2061 20.2474C67.2525 20.3582 67.2763 20.477 67.2763 20.597C67.2763 20.7171 67.2525 20.8359 67.2061 20.9467C67.1598 21.0575 67.0919 21.158 67.0064 21.2424C66.9209 21.3268 66.8195 21.3935 66.708 21.4385C66.5965 21.4836 66.4772 21.5061 66.3569 21.5048Z" fill="#E6E6E6"/>
<path d="M67.3125 25.5104H55.4443C55.3241 25.5117 55.2047 25.4892 55.0932 25.4441C54.9817 25.3991 54.8803 25.3324 54.7948 25.248C54.7093 25.1636 54.6414 25.0631 54.5951 24.9523C54.5488 24.8415 54.5249 24.7227 54.5249 24.6027C54.5249 24.4826 54.5488 24.3638 54.5951 24.253C54.6414 24.1422 54.7093 24.0417 54.7948 23.9573C54.8803 23.8729 54.9817 23.8062 55.0932 23.7612C55.2047 23.7161 55.3241 23.6936 55.4443 23.6949H67.3125C67.4327 23.6936 67.5521 23.7161 67.6636 23.7612C67.7751 23.8062 67.8765 23.8729 67.962 23.9573C68.0475 24.0417 68.1154 24.1422 68.1617 24.253C68.2081 24.3638 68.2319 24.4826 68.2319 24.6027C68.2319 24.7227 68.2081 24.8415 68.1617 24.9523C68.1154 25.0631 68.0475 25.1636 67.962 25.248C67.8765 25.3324 67.7751 25.3991 67.6636 25.4441C67.5521 25.4892 67.4327 25.5117 67.3125 25.5104Z" fill="#E6E6E6"/>
<path d="M67.9815 29.7065H56.1134C55.9931 29.7078 55.8738 29.6852 55.7623 29.6402C55.6508 29.5951 55.5494 29.5285 55.4639 29.4441C55.3784 29.3596 55.3105 29.2591 55.2642 29.1483C55.2178 29.0376 55.194 28.9187 55.194 28.7987C55.194 28.6787 55.2178 28.5598 55.2642 28.449C55.3105 28.3383 55.3784 28.2378 55.4639 28.1533C55.5494 28.0689 55.6508 28.0023 55.7623 27.9572C55.8738 27.9122 55.9931 27.8896 56.1134 27.8909H67.9815C68.1018 27.8896 68.2212 27.9122 68.3327 27.9572C68.4441 28.0023 68.5456 28.0689 68.6311 28.1533C68.7166 28.2378 68.7845 28.3383 68.8308 28.449C68.8771 28.5598 68.901 28.6787 68.901 28.7987C68.901 28.9187 68.8771 29.0376 68.8308 29.1483C68.7845 29.2591 68.7166 29.3596 68.6311 29.4441C68.5456 29.5285 68.4441 29.5951 68.3327 29.6402C68.2212 29.6852 68.1018 29.7078 67.9815 29.7065Z" fill="#E6E6E6"/>
<path d="M67.9865 10.546H59.4582C59.2187 10.5435 58.9898 10.4467 58.8212 10.2767C58.6527 10.1068 58.5582 9.87734 58.5582 9.63825C58.5582 9.39916 58.6527 9.16972 58.8212 8.99975C58.9898 8.82979 59.2187 8.73302 59.4582 8.73047H67.9865C68.2261 8.73302 68.455 8.82979 68.6235 8.99975C68.792 9.16972 68.8865 9.39916 68.8865 9.63825C68.8865 9.87734 68.792 10.1068 68.6235 10.2767C68.455 10.4467 68.2261 10.5435 67.9865 10.546Z" fill="#8480C3"/>
<path d="M72.6873 30.0387C73.3735 30.0387 73.9297 29.4836 73.9297 28.7989C73.9297 28.1142 73.3735 27.5591 72.6873 27.5591C72.0012 27.5591 71.4449 28.1142 71.4449 28.7989C71.4449 29.4836 72.0012 30.0387 72.6873 30.0387Z" fill="#E6E6E6"/>
<path d="M68.5549 33.8076H56.6868C56.5665 33.8088 56.4472 33.7863 56.3357 33.7413C56.2242 33.6962 56.1227 33.6296 56.0372 33.5451C55.9517 33.4607 55.8838 33.3602 55.8375 33.2494C55.7912 33.1386 55.7673 33.0198 55.7673 32.8998C55.7673 32.7797 55.7912 32.6609 55.8375 32.5501C55.8838 32.4394 55.9517 32.3388 56.0372 32.2544C56.1227 32.17 56.2242 32.1033 56.3357 32.0583C56.4472 32.0132 56.5665 31.9907 56.6868 31.992H68.5549C68.7945 31.9945 69.0234 32.0913 69.1919 32.2613C69.3604 32.4312 69.4549 32.6607 69.4549 32.8998C69.4549 33.1389 69.3604 33.3683 69.1919 33.5383C69.0234 33.7082 68.7945 33.805 68.5549 33.8076Z" fill="#E6E6E6"/>
<path d="M73.2606 34.1395C73.9467 34.1395 74.503 33.5845 74.503 32.8997C74.503 32.215 73.9467 31.6599 73.2606 31.6599C72.5744 31.6599 72.0182 32.215 72.0182 32.8997C72.0182 33.5845 72.5744 34.1395 73.2606 34.1395Z" fill="#E6E6E6"/>
</g>
<defs>
<clipPath id="clip0_18_1848">
<rect width="83" height="80" fill="white"/>
</clipPath>
</defs>
</svg>
